<svg width="504" height="449" viewBox="0 0 504 449" fill="none" xmlns="http://www.w3.org/2000/svg">
<g clip-path="url(#clip0_120_523)">
<g opacity="0.4">
<path d="M0.117921 240.108C0.117921 240.108 2.81562 325.425 74.0113 382.225C145.207 439.025 243.732 443.132 323.607 448.531C403.482 453.929 464.708 408.747 473.974 340.329C483.24 272.029 422.249 251.961 389.173 174.155C356.096 96.3486 359.029 70.7652 289.006 22.8844C218.983 -24.879 109.433 4.57705 51.9606 86.4908C-5.39476 168.522 0.117921 240.108 0.117921 240.108Z" fill="#B08B6F"/>
<path opacity="0.7" d="M0.117921 240.108C0.117921 240.108 2.81562 325.425 74.0113 382.225C145.207 439.025 243.732 443.132 323.607 448.531C403.482 453.929 464.708 408.747 473.974 340.329C483.24 272.029 422.249 251.961 389.173 174.155C356.096 96.3486 359.029 70.7652 289.006 22.8844C218.983 -24.879 109.433 4.57705 51.9606 86.4908C-5.39476 168.522 0.117921 240.108 0.117921 240.108Z" fill="white"/>
</g>
<path d="M32.4899 377.883H21.8164" stroke="#263238" stroke-width="1.1133" stroke-miterlimit="10"/>
<path d="M468.696 377.883H49.6152" stroke="#263238" stroke-width="1.1133" stroke-miterlimit="10"/>
<path d="M310.94 422.947C330.632 422.947 346.596 418.534 346.596 413.089C346.596 407.645 330.632 403.231 310.94 403.231C291.247 403.231 275.283 407.645 275.283 413.089C275.283 418.534 291.247 422.947 310.94 422.947Z" fill="#263238"/>
<path d="M126.792 435.387C89.7277 435.387 84.2151 429.989 83.6286 425.647C83.394 423.769 83.9805 422.126 85.2707 420.718C95.2404 410.273 152.83 414.615 232.588 420.835C243.731 421.656 255.226 422.595 266.955 423.417C347.534 429.402 379.906 428.58 386.592 420.483C387.999 418.84 388.234 416.728 387.53 413.911C384.363 402.176 341.669 402.176 325.6 403.114C324.779 403.114 324.193 402.528 324.075 401.823C324.075 401.002 324.662 400.415 325.366 400.298C331.582 399.946 385.888 397.247 390.228 413.207C391.283 416.845 390.814 419.896 388.82 422.243C381.314 431.397 350.466 432.336 266.837 426.116C254.991 425.294 243.496 424.356 232.471 423.534C156.466 417.666 96.5306 413.09 87.3819 422.595C86.5609 423.417 86.3263 424.238 86.4436 425.294C86.7955 428.111 93.3638 434.213 147.435 432.101C177.579 430.927 207.957 427.642 208.192 427.524C208.896 427.407 209.599 427.994 209.717 428.815C209.834 429.637 209.247 430.223 208.426 430.341C208.075 430.341 177.696 433.627 147.435 434.918C139.694 435.27 132.891 435.387 126.792 435.387Z" fill="white" stroke="#263238" stroke-width="1.1133" stroke-miterlimit="10"/>
<path d="M297.685 421.774C320.876 421.774 339.676 402.964 339.676 379.761C339.676 356.557 320.876 337.748 297.685 337.748C274.495 337.748 255.695 356.557 255.695 379.761C255.695 402.964 274.495 421.774 297.685 421.774Z" fill="white"/>
<mask id="mask0_120_523" style="mask-type:luminance" maskUnits="userSpaceOnUse" x="255" y="337" width="85" height="85">
<path d="M297.685 421.774C320.876 421.774 339.676 402.964 339.676 379.761C339.676 356.557 320.876 337.748 297.685 337.748C274.495 337.748 255.695 356.557 255.695 379.761C255.695 402.964 274.495 421.774 297.685 421.774Z" fill="white"/>
</mask>
<g mask="url(#mask0_120_523)">
<path d="M297.685 421.773C320.909 421.773 339.675 402.997 339.675 379.76C339.675 370.959 336.978 362.861 332.403 356.055C331.934 374.362 321.847 401.354 269.301 410.742C276.807 417.549 286.777 421.773 297.685 421.773Z" fill="#B08B6F"/>
</g>
<mask id="mask1_120_523" style="mask-type:luminance" maskUnits="userSpaceOnUse" x="255" y="337" width="85" height="85">
<path d="M297.685 421.774C320.876 421.774 339.676 402.964 339.676 379.761C339.676 356.557 320.876 337.748 297.685 337.748C274.495 337.748 255.695 356.557 255.695 379.761C255.695 402.964 274.495 421.774 297.685 421.774Z" fill="white"/>
</mask>
<g mask="url(#mask1_120_523)">
<path opacity="0.3" d="M297.685 421.773C320.909 421.773 339.675 402.997 339.675 379.76C339.675 370.959 336.978 362.861 332.403 356.055C331.934 374.362 321.847 401.354 269.301 410.742C276.807 417.549 286.777 421.773 297.685 421.773Z" fill="white"/>
</g>
<mask id="mask2_120_523" style="mask-type:luminance" maskUnits="userSpaceOnUse" x="255" y="337" width="85" height="85">
<path d="M297.685 421.774C320.876 421.774 339.676 402.964 339.676 379.761C339.676 356.557 320.876 337.748 297.685 337.748C274.495 337.748 255.695 356.557 255.695 379.761C255.695 402.964 274.495 421.774 297.685 421.774Z" fill="white"/>
</mask>
<g mask="url(#mask2_120_523)">
<path d="M318.446 396.19C306.13 384.103 291.938 380.348 291.938 380.348C291.938 380.348 306.013 384.103 318.446 396.19ZM318.446 396.19C319.15 396.19 319.971 396.19 320.674 396.19C326.539 390.323 330.527 384.69 333.342 379.643M318.446 396.19C301.087 395.956 287.95 393.257 278.215 389.619C278.802 363.096 288.302 345.376 293.228 337.865C294.87 337.748 296.395 337.63 298.037 337.63C299.445 337.63 300.852 337.748 302.26 337.865M333.342 379.643C313.637 358.872 294.519 360.984 294.519 360.984C294.519 360.984 313.754 358.872 333.342 379.643ZM333.342 379.643C334.398 377.766 335.336 375.888 336.04 374.245C327.947 362.744 313.754 354.999 306.248 353.825L304.488 353.356M304.488 353.356C299.445 352.534 296.278 353.239 296.278 353.239M304.488 353.356L309.532 339.273C307.186 338.569 304.723 338.1 302.26 337.865M302.26 337.865C298.976 343.146 290.648 359.81 290.648 393.139C290.648 359.928 298.976 343.146 302.26 337.865ZM327.947 387.624C311.174 371.311 292.759 370.49 292.759 370.49" stroke="#263238" stroke-width="1.1133" stroke-miterlimit="10" stroke-linecap="round" stroke-linejoin="round"/>
<path d="M278.097 389.736C278.684 363.214 288.184 345.493 293.111 337.982C289.123 338.452 285.369 339.391 281.851 340.916C276.455 348.779 268.01 364.27 267.424 385.042C270.474 386.685 273.992 388.328 278.097 389.736Z" stroke="#263238" stroke-width="1.1133" stroke-miterlimit="10" stroke-linecap="round" stroke-linejoin="round"/>
<path d="M281.851 340.917C267.424 346.902 256.985 360.632 255.93 376.944C258.51 379.292 262.264 382.225 267.424 385.042C268.128 364.27 276.573 348.779 281.851 340.917Z" stroke="#263238" stroke-width="1.1133" stroke-miterlimit="10" stroke-linecap="round" stroke-linejoin="round"/>
<path d="M329.471 351.83C333.577 356.407 336.626 361.923 338.386 368.025C337.799 369.786 337.095 371.898 336.04 374.245C323.959 359.106 311.995 354.647 304.488 353.473L309.532 339.391C313.52 340.447 317.273 342.207 320.675 344.32M329.471 351.83L326.305 362.627M329.471 351.83C326.891 348.896 323.959 346.432 320.675 344.32M320.675 344.32L317.039 357.698" stroke="#263238" stroke-width="1.1133" stroke-miterlimit="10" stroke-linecap="round" stroke-linejoin="round"/>
<path d="M314.106 402.058C316.452 400.063 320.909 396.073 321.026 396.073C320.791 396.073 329.236 386.568 332.051 381.639C332.051 381.756 333.107 379.526 333.224 379.644C333.107 379.526 334.28 377.883 334.162 377.766C335.218 375.771 335.218 375.771 335.922 374.128C336.977 371.781 337.798 369.669 338.268 367.908C339.323 371.664 339.91 375.654 339.91 379.761C339.91 380.465 339.91 381.052 339.91 381.639C322.199 406.518 308.476 417.315 300.031 421.891C299.327 421.891 298.623 421.891 297.92 421.891C293.462 421.891 289.24 421.187 285.252 419.896C290.765 417.315 295.691 414.733 300.148 412.034M314.106 402.058H314.223M314.106 402.058C310.118 405.344 305.543 408.748 300.148 412.034M300.148 412.034C300.265 412.034 300.383 412.034 300.5 412.034" stroke="#263238" stroke-width="1.1133" stroke-miterlimit="10" stroke-linecap="round" stroke-linejoin="round"/>
<path d="M339.91 381.639C322.199 406.518 308.476 417.197 300.031 421.891C321.73 420.835 338.972 403.349 339.91 381.639Z" stroke="#263238" stroke-width="1.1133" stroke-miterlimit="10" stroke-linecap="round" stroke-linejoin="round"/>
<path d="M265.078 406.048C270.239 412.503 277.277 417.432 285.252 420.014C290.765 417.432 295.691 414.85 300.148 412.151C290.061 414.028 274.462 409.452 265.078 406.048Z" stroke="#263238" stroke-width="1.1133" stroke-miterlimit="10" stroke-linecap="round" stroke-linejoin="round"/>
<path d="M300.149 412.151C305.427 408.865 310.119 405.579 314.107 402.176C283.846 405.227 265.197 395.956 257.221 390.558C258.746 396.308 261.443 401.589 264.962 406.048C274.463 409.452 290.062 414.029 300.149 412.151Z" stroke="#263238" stroke-width="1.1133" stroke-miterlimit="10" stroke-linecap="round" stroke-linejoin="round"/>
<path d="M318.446 396.191C319.15 396.191 319.971 396.191 320.675 396.191C318.681 398.186 316.569 400.181 314.106 402.176C283.845 405.344 265.196 395.956 257.337 390.675C256.399 387.154 255.93 383.634 255.93 379.878C255.93 378.822 255.93 377.883 256.047 376.944C258.628 379.409 263.788 384.69 278.215 389.736C288.068 393.257 301.204 395.956 318.446 396.191ZM318.446 396.191C318.563 396.308 318.798 396.543 318.915 396.66" stroke="#263238" stroke-width="1.1133" stroke-miterlimit="10" stroke-linecap="round" stroke-linejoin="round"/>
</g>
<path d="M297.685 421.774C320.876 421.774 339.676 402.964 339.676 379.761C339.676 356.557 320.876 337.748 297.685 337.748C274.495 337.748 255.695 356.557 255.695 379.761C255.695 402.964 274.495 421.774 297.685 421.774Z" stroke="#263238" stroke-width="1.1133" stroke-miterlimit="10" stroke-linecap="round" stroke-linejoin="round"/>
<path d="M375.097 307.94C375.097 307.94 372.282 298.551 363.837 295.265C357.973 292.918 351.287 293.505 345.305 294.561C334.045 296.556 324.31 301.016 313.637 304.771C313.637 304.771 318.211 303.128 336.86 312.165C343.781 315.568 351.639 318.15 359.498 317.915C365.714 317.798 375.449 316.037 375.097 307.94Z" fill="#B08B6F"/>
<path d="M376.153 280.478C376.153 280.478 376.153 270.738 368.998 265.105C364.072 261.232 357.504 259.824 351.404 259.12C340.027 257.712 329.354 259.237 318.094 259.824C318.094 259.824 322.903 259.589 338.151 273.672C343.78 278.836 350.583 283.647 358.09 285.759C364.306 287.285 374.042 288.341 376.153 280.478Z" fill="#B08B6F"/>
<path d="M395.39 316.741C395.39 316.741 387.766 310.639 387.766 301.603C387.766 295.383 390.815 289.28 393.982 284.117C399.964 274.376 407.705 266.866 415.212 258.416C415.212 258.416 411.928 262.054 413.57 282.708C414.156 290.337 413.687 298.551 410.637 305.827C408.057 311.695 402.896 320.027 395.39 316.741Z" fill="#B08B6F"/>
<path d="M422.365 331.762C422.365 331.762 421.309 322.022 427.643 315.685C432.1 311.225 438.434 309.113 444.416 307.705C455.558 305.006 466.232 305.24 477.609 304.536C477.609 304.536 472.8 304.771 459.312 320.614C454.385 326.482 448.169 331.88 440.897 334.931C434.915 337.161 425.297 339.273 422.365 331.762Z" fill="#B08B6F"/>
<path d="M420.606 297.143C420.606 297.143 410.988 295.852 406.296 288.107C403.012 282.708 402.543 276.019 402.66 269.917C402.778 258.533 405.593 248.089 407.704 236.94C407.704 236.94 406.766 241.751 418.729 258.651C423.186 264.87 426.94 272.264 428.113 280.009C428.934 286.229 428.699 296.087 420.606 297.143Z" fill="#B08B6F"/>
<path d="M448.405 279.774C448.405 279.774 455.325 286.581 464.356 285.642C470.573 284.938 476.203 281.183 481.012 277.427C489.926 270.386 496.494 261.819 504.001 253.37C504.001 253.37 500.834 257.008 480.073 257.829C472.449 258.181 464.239 259.589 457.436 263.462C451.923 266.513 444.3 272.733 448.405 279.774Z" fill="#B08B6F"/>
<path d="M440.428 272.968C440.428 272.968 450.164 273.907 456.497 267.57C460.954 263.11 462.948 256.656 464.356 250.67C466.936 239.522 466.584 228.725 467.171 217.459C467.171 217.459 466.936 222.271 451.337 236.001C445.589 241.047 440.077 247.267 437.262 254.543C434.916 260.411 432.805 270.034 440.428 272.968Z" fill="#B08B6F"/>
<path d="M405.71 367.556L388.937 326.247L369.584 278.483" stroke="#263238" stroke-width="1.1133" stroke-miterlimit="10" stroke-linecap="round" stroke-linejoin="round"/>
<path d="M409.58 360.514L426.353 303.011L444.416 267.569" stroke="#263238" stroke-width="1.1133" stroke-miterlimit="10" stroke-linecap="round" stroke-linejoin="round"/>
<path d="M416.031 337.865L432.804 328.242" stroke="#263238" stroke-width="1.1133" stroke-miterlimit="10" stroke-linecap="round" stroke-linejoin="round"/>
<path d="M426.353 303.011L417.908 284.352" stroke="#263238" stroke-width="1.1133" stroke-miterlimit="10" stroke-linecap="round" stroke-linejoin="round"/>
<path d="M436.793 284.469L457.319 275.315" stroke="#263238" stroke-width="1.1133" stroke-miterlimit="10" stroke-linecap="round" stroke-linejoin="round"/>
<path d="M392.104 333.993L399.258 305.593" stroke="#263238" stroke-width="1.1133" stroke-miterlimit="10" stroke-linecap="round" stroke-linejoin="round"/>
<path d="M382.721 312.399L366.418 303.715" stroke="#263238" stroke-width="1.1133" stroke-miterlimit="10" stroke-linecap="round" stroke-linejoin="round"/>
<path d="M414.273 388.21H400.316C395.624 388.21 391.519 384.807 390.698 380.23L385.771 354.06H428.935L424.008 380.23C423.07 384.807 419.082 388.21 414.273 388.21Z" fill="#263238" stroke="#263238" stroke-width="1.1133" stroke-miterlimit="10" stroke-linecap="round" stroke-linejoin="round"/>
<path d="M223.087 333.053C196.931 333.053 181.331 309.817 175.701 289.514L175.467 288.81C174.411 284.703 176.874 280.478 180.979 279.422C185.085 278.366 189.307 280.83 190.363 284.938L190.48 285.524C194.702 301.015 206.197 318.736 224.729 317.797C232.118 317.328 238.1 314.511 242.909 308.878C253.113 297.26 257.57 271.911 256.632 259.12C256.398 255.716 258.861 252.782 262.262 252.548C265.664 252.313 268.596 254.777 268.83 258.181C270.003 272.381 268.479 302.893 254.521 318.971C246.897 327.655 237.279 332.466 225.667 333.053C224.846 332.936 223.908 333.053 223.087 333.053Z" fill="white"/>
<mask id="mask3_120_523" style="mask-type:luminance" maskUnits="userSpaceOnUse" x="175" y="252" width="95" height="82">
<path d="M223.087 333.053C196.931 333.053 181.331 309.817 175.701 289.514L175.467 288.81C174.411 284.703 176.874 280.478 180.979 279.422C185.085 278.366 189.307 280.83 190.363 284.938L190.48 285.524C194.702 301.015 206.197 318.736 224.729 317.797C232.118 317.328 238.1 314.511 242.909 308.878C253.113 297.26 257.57 271.911 256.632 259.12C256.398 255.716 258.861 252.782 262.262 252.548C265.664 252.313 268.596 254.777 268.83 258.181C270.003 272.381 268.479 302.893 254.521 318.971C246.897 327.655 237.279 332.466 225.667 333.053C224.846 332.936 223.908 333.053 223.087 333.053Z" fill="white"/>
</mask>
<g mask="url(#mask3_120_523)">
<path d="M262.261 252.43C258.86 252.665 256.397 255.599 256.631 259.002C257.1 265.222 256.279 274.493 254.168 283.647C256.866 283.53 259.915 283.764 263.317 284.82C262.848 291.04 260.854 300.311 254.403 309.348C243.025 325.191 225.901 330.237 212.647 328.359C206.665 327.538 199.862 324.369 194.115 321.2C201.739 328.242 211.357 333.053 223.203 333.053C224.024 333.053 224.845 333.053 225.784 332.936C237.278 332.232 247.013 327.538 254.637 318.853C268.595 302.893 270.12 272.263 268.947 258.064C268.595 254.66 265.663 252.196 262.261 252.43Z" fill="#B08B6F"/>
</g>
<mask id="mask4_120_523" style="mask-type:luminance" maskUnits="userSpaceOnUse" x="175" y="252" width="95" height="82">
<path d="M223.087 333.053C196.931 333.053 181.331 309.817 175.701 289.514L175.467 288.81C174.411 284.703 176.874 280.478 180.979 279.422C185.085 278.366 189.307 280.83 190.363 284.938L190.48 285.524C194.702 301.015 206.197 318.736 224.729 317.797C232.118 317.328 238.1 314.511 242.909 308.878C253.113 297.26 257.57 271.911 256.632 259.12C256.398 255.716 258.861 252.782 262.262 252.548C265.664 252.313 268.596 254.777 268.83 258.181C270.003 272.381 268.479 302.893 254.521 318.971C246.897 327.655 237.279 332.466 225.667 333.053C224.846 332.936 223.908 333.053 223.087 333.053Z" fill="white"/>
</mask>
<g mask="url(#mask4_120_523)">
<path opacity="0.5" d="M262.261 252.43C258.86 252.665 256.397 255.599 256.631 259.002C257.1 265.222 256.279 274.493 254.168 283.647C256.866 283.53 259.915 283.764 263.317 284.82C262.848 291.04 260.854 300.311 254.403 309.348C243.025 325.191 225.901 330.237 212.647 328.359C206.665 327.538 199.862 324.369 194.115 321.2C201.739 328.242 211.357 333.053 223.203 333.053C224.024 333.053 224.845 333.053 225.784 332.936C237.278 332.232 247.013 327.538 254.637 318.853C268.595 302.893 270.12 272.263 268.947 258.064C268.595 254.66 265.663 252.196 262.261 252.43Z" fill="white"/>
</g>
<path d="M223.087 333.053C196.931 333.053 181.331 309.817 175.701 289.514L175.467 288.81C174.411 284.703 176.874 280.478 180.979 279.422C185.085 278.366 189.307 280.83 190.363 284.938L190.48 285.524C194.702 301.015 206.197 318.736 224.729 317.797C232.118 317.328 238.1 314.511 242.909 308.878C253.113 297.26 257.57 271.911 256.632 259.12C256.398 255.716 258.861 252.782 262.262 252.548C265.664 252.313 268.596 254.777 268.83 258.181C270.003 272.381 268.479 302.893 254.521 318.971C246.897 327.655 237.279 332.466 225.667 333.053C224.846 332.936 223.908 333.053 223.087 333.053Z" stroke="#263238" stroke-width="1.1133" stroke-miterlimit="10" stroke-linecap="round" stroke-linejoin="round"/>
<path d="M208.073 317.092C208.659 314.276 201.856 318.735 196.109 322.96C198.22 324.72 200.566 326.363 202.912 327.772C204.906 324.368 207.486 319.909 208.073 317.092Z" fill="#B08B6F" stroke="#263238" stroke-width="1.1133" stroke-miterlimit="10" stroke-linecap="round" stroke-linejoin="round"/>
<path d="M223.086 333.053C223.907 333.053 224.728 333.053 225.667 332.936C228.247 332.818 230.71 332.466 233.056 331.879C229.772 327.655 225.315 322.022 224.024 321.669C222.617 321.2 219.685 328.359 218.16 332.701C219.802 332.936 221.444 333.053 223.086 333.053Z" fill="#B08B6F" stroke="#263238" stroke-width="1.1133" stroke-miterlimit="10" stroke-linecap="round" stroke-linejoin="round"/>
<path d="M190.48 285.407L190.363 284.82C189.307 280.713 185.085 278.248 180.979 279.304C176.874 280.361 174.411 284.585 175.467 288.693L175.701 289.397C177.578 296.204 180.51 303.245 184.615 309.699L198.573 303.01C194.82 297.612 192.122 291.392 190.48 285.407Z" fill="#B08B6F" stroke="#263238" stroke-width="1.1133" stroke-miterlimit="10" stroke-linecap="round" stroke-linejoin="round"/>
<path d="M254.521 318.853C255.577 317.68 256.632 316.271 257.453 314.98C252.996 313.455 246.428 311.342 243.965 311.577C241.032 311.812 245.02 321.2 247.014 325.66C249.712 323.782 252.175 321.435 254.521 318.853Z" fill="#B08B6F" stroke="#263238" stroke-width="1.1133" stroke-miterlimit="10" stroke-linecap="round" stroke-linejoin="round"/>
<path d="M254.756 293.739C254.286 294.678 260.034 298.903 263.904 301.485C265.077 297.847 266.133 294.091 266.837 290.336C262.145 291.275 255.225 292.8 254.756 293.739Z" fill="#B08B6F" stroke="#263238" stroke-width="1.1133" stroke-miterlimit="10" stroke-linecap="round" stroke-linejoin="round"/>
<path d="M268.712 276.371C268.947 273.085 269.064 269.799 269.064 266.865C265.076 269.094 260.267 272.146 260.267 274.141C260.267 276.136 264.842 276.488 268.712 276.371Z" fill="#B08B6F" stroke="#263238" stroke-width="1.1133" stroke-miterlimit="10" stroke-linecap="round" stroke-linejoin="round"/>
<path d="M205.611 185.656C205.611 185.656 194.233 218.632 200.332 244.333C206.432 270.034 228.951 278.483 228.951 278.483C228.951 278.483 212.296 284.351 216.167 293.387C219.92 302.424 234.23 296.556 238.921 293.622C243.613 290.688 249.477 281.887 250.298 276.136C251.119 270.268 250.885 267.1 250.885 267.1C250.885 267.1 269.886 265.105 282.671 254.543C282.671 254.543 294.048 263.579 302.258 261.819C310.469 260.059 322.081 245.507 320.908 232.363C319.735 219.219 312.111 219.219 307.537 221.214C302.845 223.209 301.085 225.322 301.085 225.322C301.085 225.322 307.771 217.107 301.085 205.723C294.4 194.34 282.436 193.401 282.436 193.401C282.436 193.401 278.917 174.742 268.479 167.7C257.805 160.776 220.506 153.5 205.611 185.656Z" fill="white"/>
<mask id="mask5_120_523" style="mask-type:luminance" maskUnits="userSpaceOnUse" x="198" y="161" width="123" height="138">
<path d="M205.611 185.656C205.611 185.656 194.233 218.632 200.332 244.333C206.432 270.034 228.951 278.483 228.951 278.483C228.951 278.483 212.296 284.351 216.167 293.387C219.92 302.424 234.23 296.556 238.921 293.622C243.613 290.688 249.477 281.887 250.298 276.136C251.119 270.268 250.885 267.1 250.885 267.1C250.885 267.1 269.886 265.105 282.671 254.543C282.671 254.543 294.048 263.579 302.258 261.819C310.469 260.059 322.081 245.507 320.908 232.363C319.735 219.219 312.111 219.219 307.537 221.214C302.845 223.209 301.085 225.322 301.085 225.322C301.085 225.322 307.771 217.107 301.085 205.723C294.4 194.34 282.436 193.401 282.436 193.401C282.436 193.401 278.917 174.742 268.479 167.7C257.805 160.776 220.506 153.5 205.611 185.656Z" fill="white"/>
</mask>
<g mask="url(#mask5_120_523)">
<path d="M292.289 196.922C283.962 210.653 267.189 226.496 240.799 228.843C217.575 230.838 204.556 226.261 198.574 223.092C199.395 203.377 205.494 185.539 205.494 185.539C220.39 153.383 257.689 160.659 268.245 167.701C278.801 174.742 282.202 193.401 282.202 193.401C282.202 193.401 287.129 193.871 292.289 196.922ZM307.42 221.215C302.728 223.21 300.969 225.322 300.969 225.322C300.969 225.322 302.963 222.858 303.667 218.75C287.832 226.613 289.123 243.395 287.129 243.395C284.666 243.395 283.493 234.945 283.493 234.945C283.493 234.945 280.443 247.033 262.38 255.482C244.317 263.932 223.791 257.243 223.791 257.243C223.791 257.243 228.014 266.866 217.106 265.692C213.47 265.34 210.655 264.049 208.661 262.641C217.458 274.259 228.718 278.484 228.718 278.484C228.718 278.484 212.062 284.352 215.933 293.388C219.686 302.424 233.996 296.556 238.687 293.623C243.379 290.689 249.244 281.887 250.065 276.137C250.886 270.269 250.651 267.1 250.651 267.1C250.651 267.1 269.652 265.105 282.437 254.543C282.437 254.543 293.814 263.58 302.025 261.819C310.235 260.059 321.847 245.507 320.674 232.363C319.736 219.22 312.112 219.22 307.42 221.215Z" fill="#B08B6F"/>
</g>
<mask id="mask6_120_523" style="mask-type:luminance" maskUnits="userSpaceOnUse" x="198" y="161" width="123" height="138">
<path d="M205.611 185.656C205.611 185.656 194.233 218.632 200.332 244.333C206.432 270.034 228.951 278.483 228.951 278.483C228.951 278.483 212.296 284.351 216.167 293.387C219.92 302.424 234.23 296.556 238.921 293.622C243.613 290.688 249.477 281.887 250.298 276.136C251.119 270.268 250.885 267.1 250.885 267.1C250.885 267.1 269.886 265.105 282.671 254.543C282.671 254.543 294.048 263.579 302.258 261.819C310.469 260.059 322.081 245.507 320.908 232.363C319.735 219.219 312.111 219.219 307.537 221.214C302.845 223.209 301.085 225.322 301.085 225.322C301.085 225.322 307.771 217.107 301.085 205.723C294.4 194.34 282.436 193.401 282.436 193.401C282.436 193.401 278.917 174.742 268.479 167.7C257.805 160.776 220.506 153.5 205.611 185.656Z" fill="white"/>
</mask>
<g mask="url(#mask6_120_523)">
<path opacity="0.5" d="M292.289 196.922C283.962 210.653 267.189 226.496 240.799 228.843C217.575 230.838 204.556 226.261 198.574 223.092C199.395 203.377 205.494 185.539 205.494 185.539C220.39 153.383 257.689 160.659 268.245 167.701C278.801 174.742 282.202 193.401 282.202 193.401C282.202 193.401 287.129 193.871 292.289 196.922ZM307.42 221.215C302.728 223.21 300.969 225.322 300.969 225.322C300.969 225.322 302.963 222.858 303.667 218.75C287.832 226.613 289.123 243.395 287.129 243.395C284.666 243.395 283.493 234.945 283.493 234.945C283.493 234.945 280.443 247.033 262.38 255.482C244.317 263.932 223.791 257.243 223.791 257.243C223.791 257.243 228.014 266.866 217.106 265.692C213.47 265.34 210.655 264.049 208.661 262.641C217.458 274.259 228.718 278.484 228.718 278.484C228.718 278.484 212.062 284.352 215.933 293.388C219.686 302.424 233.996 296.556 238.687 293.623C243.379 290.689 249.244 281.887 250.065 276.137C250.886 270.269 250.651 267.1 250.651 267.1C250.651 267.1 269.652 265.105 282.437 254.543C282.437 254.543 293.814 263.58 302.025 261.819C310.235 260.059 321.847 245.507 320.674 232.363C319.736 219.22 312.112 219.22 307.42 221.215Z" fill="white"/>
</g>
<mask id="mask7_120_523" style="mask-type:luminance" maskUnits="userSpaceOnUse" x="198" y="161" width="123" height="138">
<path d="M205.611 185.656C205.611 185.656 194.233 218.632 200.332 244.333C206.432 270.034 228.951 278.483 228.951 278.483C228.951 278.483 212.296 284.351 216.167 293.387C219.92 302.424 234.23 296.556 238.921 293.622C243.613 290.688 249.477 281.887 250.298 276.136C251.119 270.268 250.885 267.1 250.885 267.1C250.885 267.1 269.886 265.105 282.671 254.543C282.671 254.543 294.048 263.579 302.258 261.819C310.469 260.059 322.081 245.507 320.908 232.363C319.735 219.219 312.111 219.219 307.537 221.214C302.845 223.209 301.085 225.322 301.085 225.322C301.085 225.322 307.771 217.107 301.085 205.723C294.4 194.34 282.436 193.401 282.436 193.401C282.436 193.401 278.917 174.742 268.479 167.7C257.805 160.776 220.506 153.5 205.611 185.656Z" fill="white"/>
</mask>
<g mask="url(#mask7_120_523)">
<path d="M250.767 267.1C250.767 267.1 231.297 268.625 217.691 251.961" stroke="#263238" stroke-width="1.1133" stroke-miterlimit="10" stroke-linecap="round" stroke-linejoin="round"/>
</g>
<path d="M205.611 185.656C205.611 185.656 194.233 218.632 200.332 244.333C206.432 270.034 228.951 278.483 228.951 278.483C228.951 278.483 212.296 284.351 216.167 293.387C219.92 302.424 234.23 296.556 238.921 293.622C243.613 290.688 249.477 281.887 250.298 276.136C251.119 270.268 250.885 267.1 250.885 267.1C250.885 267.1 269.886 265.105 282.671 254.543C282.671 254.543 294.048 263.579 302.258 261.819C310.469 260.059 322.081 245.507 320.908 232.363C319.735 219.219 312.111 219.219 307.537 221.214C302.845 223.209 301.085 225.322 301.085 225.322C301.085 225.322 307.771 217.107 301.085 205.723C294.4 194.34 282.436 193.401 282.436 193.401C282.436 193.401 278.917 174.742 268.479 167.7C257.805 160.776 220.506 153.5 205.611 185.656Z" stroke="#263238" stroke-width="1.1133" stroke-miterlimit="10" stroke-linecap="round" stroke-linejoin="round"/>
<path d="M300.969 225.321C300.969 225.321 294.869 229.429 291.937 241.986" stroke="#263238" stroke-width="1.1133" stroke-miterlimit="10" stroke-linecap="round" stroke-linejoin="round"/>
<path d="M312.198 230.719C312.922 228.57 312.166 226.374 310.509 225.815C308.852 225.255 306.921 226.544 306.196 228.694C305.472 230.843 306.228 233.039 307.885 233.598C309.542 234.157 311.473 232.868 312.198 230.719Z" fill="white" stroke="#263238" stroke-width="1.1133" stroke-miterlimit="10" stroke-linecap="round" stroke-linejoin="round"/>
<path d="M318.213 234.449C318.938 232.3 318.182 230.104 316.525 229.545C314.867 228.986 312.937 230.275 312.212 232.424C311.487 234.574 312.243 236.769 313.9 237.329C315.558 237.888 317.489 236.599 318.213 234.449Z" fill="white" stroke="#263238" stroke-width="1.1133" stroke-miterlimit="10" stroke-linecap="round" stroke-linejoin="round"/>
<path d="M319.589 240.186C320.107 238.651 319.532 237.07 318.304 236.656C317.077 236.242 315.662 237.15 315.144 238.685C314.626 240.221 315.202 241.801 316.429 242.216C317.657 242.63 319.072 241.721 319.589 240.186Z" fill="white" stroke="#263238" stroke-width="1.1133" stroke-miterlimit="10" stroke-linecap="round" stroke-linejoin="round"/>
<path d="M311.934 248.036C314.036 244.237 313.214 239.758 310.098 238.031C306.981 236.304 302.75 237.983 300.647 241.782C298.544 245.581 299.366 250.06 302.483 251.787C305.6 253.514 309.831 251.835 311.934 248.036Z" fill="white" stroke="#263238" stroke-width="1.1133" stroke-miterlimit="10" stroke-linecap="round" stroke-linejoin="round"/>
<path d="M228.951 278.483C228.951 278.483 234.229 281.417 241.501 279.305" stroke="#263238" stroke-width="1.1133" stroke-miterlimit="10" stroke-linecap="round" stroke-linejoin="round"/>
<path d="M216.048 293.388C216.048 293.388 217.221 288.459 224.493 284.938" stroke="#263238" stroke-width="1.1133" stroke-miterlimit="10" stroke-linecap="round" stroke-linejoin="round"/>
<path d="M223.437 297.729C223.437 297.729 226.369 290.688 231.296 287.52" stroke="#263238" stroke-width="1.1133" stroke-miterlimit="10" stroke-linecap="round" stroke-linejoin="round"/>
<path d="M108.26 216.989C105.797 214.994 104.506 212.178 104.506 208.657V180.844H32.7242C28.8535 180.844 25.6867 179.553 23.3409 176.971C20.995 174.39 19.7048 171.338 19.7048 167.818C19.7048 165.001 20.5259 162.419 22.0507 159.955L90.7833 51.8711C96.0614 43.8909 102.864 39.9009 111.427 39.9009C116.47 39.9009 120.692 41.4265 123.977 44.3604C127.378 47.2942 129.02 51.6364 129.02 57.5041V162.537H147.318C150.25 162.537 152.478 163.476 154.12 165.236C155.763 166.996 156.466 169.226 156.466 171.69C156.466 174.155 155.645 176.385 154.12 178.145C152.478 179.905 150.25 180.844 147.318 180.844H128.903V208.657C128.903 212.178 127.73 214.994 125.267 216.989C122.804 218.985 119.989 220.041 116.822 220.041C113.655 219.923 110.84 218.985 108.26 216.989ZM104.506 162.419V65.719L44.336 162.419H104.506Z" fill="#263238"/>
<path d="M207.84 217.459C200.333 214.056 194.351 209.479 189.66 203.846C184.968 198.213 181.215 191.289 178.165 183.191C175.233 175.094 173.122 166.644 171.949 158.077C170.776 149.51 170.189 140.122 170.189 130.029C170.189 68.1834 191.302 37.2017 233.527 37.2017C275.634 37.2017 296.746 68.1834 296.746 130.029C296.746 140.122 296.16 149.393 295.104 157.96C293.931 166.527 291.938 174.859 288.888 183.074C285.956 191.171 282.085 198.095 277.393 203.846C272.702 209.479 266.72 214.056 259.213 217.459C251.707 220.862 243.144 222.622 233.527 222.622C223.909 222.622 215.346 220.862 207.84 217.459ZM246.077 199.738C249.83 198.095 252.997 195.983 255.46 193.284C258.04 190.585 260.269 187.299 262.146 183.426C264.022 179.436 265.547 175.446 266.603 171.456C267.658 167.466 268.597 162.889 269.183 157.843C269.769 152.796 270.239 148.102 270.473 143.877C270.708 139.653 270.825 135.076 270.825 130.147C270.825 124.983 270.708 120.172 270.473 115.712C270.239 111.253 269.769 106.558 269.183 101.512C268.479 96.4659 267.658 91.8891 266.485 87.899C265.43 83.9089 263.905 79.9189 262.028 76.0462C260.152 72.1734 257.923 69.0048 255.343 66.3057C252.762 63.7239 249.713 61.6115 245.959 60.0859C242.323 58.5603 238.101 57.7388 233.527 57.7388C228.952 57.7388 224.73 58.5603 221.094 60.0859C217.458 61.6115 214.291 63.7239 211.828 66.3057C209.365 68.8875 207.136 72.0561 205.142 75.9288C203.265 79.8015 201.741 83.7916 200.685 87.7816C199.629 91.7717 198.808 96.3485 198.105 101.512C197.401 106.676 197.049 111.37 196.814 115.829C196.58 120.289 196.463 125.101 196.463 130.264C196.463 135.193 196.58 139.887 196.814 144.112C197.049 148.337 197.401 153.031 198.105 158.195C198.691 163.241 199.629 167.818 200.685 171.808C201.741 175.798 203.265 179.788 205.142 183.778C207.019 187.768 209.247 191.054 211.71 193.636C214.173 196.218 217.34 198.33 221.094 199.973C224.847 201.616 228.952 202.437 233.644 202.437C238.101 202.203 242.323 201.381 246.077 199.738Z" fill="#263238"/>
<path d="M405.357 216.989C402.894 214.994 401.604 212.178 401.604 208.657V180.844H329.822C325.951 180.844 322.784 179.553 320.439 176.971C318.093 174.39 316.802 171.338 316.802 167.818C316.802 165.001 317.624 162.419 319.148 159.955L387.881 51.8711C393.159 43.8909 399.962 39.9009 408.524 39.9009C413.568 39.9009 417.79 41.4265 421.074 44.3604C424.476 47.2942 426.118 51.6364 426.118 57.5041V162.537H444.415C447.348 162.537 449.576 163.476 451.218 165.236C452.86 166.996 453.564 169.226 453.564 171.69C453.564 174.155 452.743 176.385 451.218 178.145C449.576 179.905 447.348 180.844 444.415 180.844H426.001V208.657C426.001 212.178 424.828 214.994 422.365 216.989C419.901 218.985 417.086 220.041 413.92 220.041C410.753 219.923 407.938 218.985 405.357 216.989ZM401.604 162.419V65.719L341.434 162.419H401.604Z" fill="#263238"/>
<path d="M181.918 168.991C181.918 168.991 169.602 186.242 167.96 203.728C166.201 221.214 168.195 232.95 173.473 237.292C178.751 241.634 184.029 239.874 186.844 235.884C189.777 231.776 185.085 217.459 185.085 217.459C185.085 217.459 190.011 203.728 197.635 194.105C205.259 184.482 206.666 182.957 206.666 182.957C206.666 182.957 193.647 168.052 181.918 168.991Z" fill="white"/>
<mask id="mask8_120_523" style="mask-type:luminance" maskUnits="userSpaceOnUse" x="167" y="168" width="40" height="72">
<path d="M181.918 168.991C181.918 168.991 169.602 186.242 167.96 203.728C166.201 221.214 168.195 232.95 173.473 237.292C178.751 241.634 184.029 239.874 186.844 235.884C189.777 231.776 185.085 217.459 185.085 217.459C185.085 217.459 190.011 203.728 197.635 194.105C205.259 184.482 206.666 182.957 206.666 182.957C206.666 182.957 193.647 168.052 181.918 168.991Z" fill="white"/>
</mask>
<g mask="url(#mask8_120_523)">
<path d="M181.918 168.991C181.918 168.991 178.282 174.038 174.763 181.431C180.628 183.778 189.777 188.59 195.524 197.157C196.228 196.1 196.931 195.162 197.752 194.223C205.376 184.6 206.784 183.074 206.784 183.074C206.784 183.074 193.647 168.053 181.918 168.991Z" fill="#B08B6F"/>
</g>
<mask id="mask9_120_523" style="mask-type:luminance" maskUnits="userSpaceOnUse" x="167" y="168" width="40" height="72">
<path d="M181.918 168.991C181.918 168.991 169.602 186.242 167.96 203.728C166.201 221.214 168.195 232.95 173.473 237.292C178.751 241.634 184.029 239.874 186.844 235.884C189.777 231.776 185.085 217.459 185.085 217.459C185.085 217.459 190.011 203.728 197.635 194.105C205.259 184.482 206.666 182.957 206.666 182.957C206.666 182.957 193.647 168.052 181.918 168.991Z" fill="white"/>
</mask>
<g mask="url(#mask9_120_523)">
<path opacity="0.5" d="M181.918 168.991C181.918 168.991 178.282 174.038 174.763 181.431C180.628 183.778 189.777 188.59 195.524 197.157C196.228 196.1 196.931 195.162 197.752 194.223C205.376 184.6 206.784 183.074 206.784 183.074C206.784 183.074 193.647 168.053 181.918 168.991Z" fill="white"/>
</g>
<path d="M181.918 168.991C181.918 168.991 169.602 186.242 167.96 203.728C166.201 221.214 168.195 232.95 173.473 237.292C178.751 241.634 184.029 239.874 186.844 235.884C189.777 231.776 185.085 217.459 185.085 217.459C185.085 217.459 190.011 203.728 197.635 194.105C205.259 184.482 206.666 182.957 206.666 182.957C206.666 182.957 193.647 168.052 181.918 168.991Z" stroke="#263238" stroke-width="1.1133" stroke-miterlimit="10" stroke-linecap="round" stroke-linejoin="round"/>
<path d="M173.472 237.292C173.472 237.292 171.478 232.598 171.478 225.322" stroke="#263238" stroke-width="1.1133" stroke-miterlimit="10" stroke-linecap="round" stroke-linejoin="round"/>
<path d="M181.331 239.052C181.331 239.052 178.398 234.123 178.164 225.674" stroke="#263238" stroke-width="1.1133" stroke-miterlimit="10" stroke-linecap="round" stroke-linejoin="round"/>
<path d="M185.788 200.208C185.788 197.156 179.923 191.171 171.713 188.472C170.657 191.289 169.719 194.223 169.015 197.274C171.244 197.743 175.115 198.565 178.164 200.208C182.504 202.555 185.788 203.728 185.788 200.208Z" fill="#B08B6F" stroke="#263238" stroke-width="1.1133" stroke-miterlimit="10" stroke-linecap="round" stroke-linejoin="round"/>
<path d="M181.213 170.047C180.158 171.573 178.164 174.742 176.052 178.966C178.164 179.553 180.627 180.492 183.09 181.9C192.121 187.181 193.881 187.768 190.948 180.14C189.189 175.328 184.967 172.042 181.213 170.047Z" fill="#B08B6F" stroke="#263238" stroke-width="1.1133" stroke-miterlimit="10" stroke-linecap="round" stroke-linejoin="round"/>
<path d="M277.981 160.424C277.981 160.424 291.822 176.385 295.34 193.636C298.859 210.887 297.921 222.74 293.112 227.551C288.303 232.48 282.908 231.189 279.623 227.434C276.339 223.679 279.506 209.009 279.506 209.009C279.506 209.009 273.172 195.866 264.727 186.947C256.282 178.145 254.64 176.737 254.64 176.737C254.64 176.737 266.252 160.776 277.981 160.424Z" fill="white"/>
<mask id="mask10_120_523" style="mask-type:luminance" maskUnits="userSpaceOnUse" x="254" y="160" width="44" height="71">
<path d="M277.981 160.424C277.981 160.424 291.822 176.385 295.34 193.636C298.859 210.887 297.921 222.74 293.112 227.551C288.303 232.48 282.908 231.189 279.623 227.434C276.339 223.679 279.506 209.009 279.506 209.009C279.506 209.009 273.172 195.866 264.727 186.947C256.282 178.145 254.64 176.737 254.64 176.737C254.64 176.737 266.252 160.776 277.981 160.424Z" fill="white"/>
</mask>
<g mask="url(#mask10_120_523)">
<path d="M277.981 160.424C266.252 160.659 254.64 176.854 254.64 176.854C254.64 176.854 256.282 178.145 264.727 187.064C266.252 188.707 267.777 190.467 269.184 192.345C272.117 187.416 277.981 179.553 287.599 174.39C282.908 166.057 277.981 160.424 277.981 160.424Z" fill="#B08B6F"/>
</g>
<mask id="mask11_120_523" style="mask-type:luminance" maskUnits="userSpaceOnUse" x="254" y="160" width="44" height="71">
<path d="M277.981 160.424C277.981 160.424 291.822 176.385 295.34 193.636C298.859 210.887 297.921 222.74 293.112 227.551C288.303 232.48 282.908 231.189 279.623 227.434C276.339 223.679 279.506 209.009 279.506 209.009C279.506 209.009 273.172 195.866 264.727 186.947C256.282 178.145 254.64 176.737 254.64 176.737C254.64 176.737 266.252 160.776 277.981 160.424Z" fill="white"/>
</mask>
<g mask="url(#mask11_120_523)">
<path opacity="0.5" d="M277.981 160.424C266.252 160.659 254.64 176.854 254.64 176.854C254.64 176.854 256.282 178.145 264.727 187.064C266.252 188.707 267.777 190.467 269.184 192.345C272.117 187.416 277.981 179.553 287.599 174.39C282.908 166.057 277.981 160.424 277.981 160.424Z" fill="white"/>
</g>
<path d="M277.981 160.424C277.981 160.424 291.822 176.385 295.34 193.636C298.859 210.887 297.921 222.74 293.112 227.551C288.303 232.48 282.908 231.189 279.623 227.434C276.339 223.679 279.506 209.009 279.506 209.009C279.506 209.009 273.172 195.866 264.727 186.947C256.282 178.145 254.64 176.737 254.64 176.737C254.64 176.737 266.252 160.776 277.981 160.424Z" stroke="#263238" stroke-width="1.1133" stroke-miterlimit="10" stroke-linecap="round" stroke-linejoin="round"/>
<path d="M293.111 227.669C293.111 227.669 294.636 222.857 293.932 215.581" stroke="#263238" stroke-width="1.1133" stroke-miterlimit="10" stroke-linecap="round" stroke-linejoin="round"/>
<path d="M285.371 230.133C285.371 230.133 287.834 224.852 287.247 216.403" stroke="#263238" stroke-width="1.1133" stroke-miterlimit="10" stroke-linecap="round" stroke-linejoin="round"/>
<path d="M277.276 191.875C276.924 188.824 282.202 182.252 290.061 178.849C291.351 181.548 292.641 184.364 293.58 187.298C291.468 187.885 287.598 189.176 284.783 191.054C280.678 193.87 277.628 195.396 277.276 191.875Z" fill="#B08B6F" stroke="#263238" stroke-width="1.1133" stroke-miterlimit="10" stroke-linecap="round" stroke-linejoin="round"/>
<path d="M278.802 161.48C279.975 162.889 282.32 165.823 284.784 169.813C282.672 170.634 280.444 171.69 278.098 173.451C269.653 179.553 267.894 180.375 270.122 172.512C271.412 167.466 275.283 163.828 278.802 161.48Z" fill="#B08B6F" stroke="#263238" stroke-width="1.1133" stroke-miterlimit="10" stroke-linecap="round" stroke-linejoin="round"/>
<path d="M180.745 154.087C180.745 154.087 177.109 166.292 178.517 171.221C179.924 176.15 186.141 171.69 192.474 177.089C198.808 182.487 204.673 192.227 228.6 194.105C252.527 195.865 266.954 182.956 271.998 175.798C276.924 168.522 276.455 159.955 285.134 159.485C293.697 159.016 286.542 142.352 283.727 139.652C283.727 139.652 300.382 114.773 300.382 108.436C300.382 102.099 284.548 103.507 265.195 109.375C265.195 109.375 250.768 101.747 224.612 106.206C198.456 110.666 190.715 118.411 190.715 118.411C190.715 118.411 158.225 122.519 155.997 126.509C153.651 130.616 160.454 147.75 180.745 154.087Z" fill="white"/>
<mask id="mask12_120_523" style="mask-type:luminance" maskUnits="userSpaceOnUse" x="155" y="104" width="146" height="91">
<path d="M180.745 154.087C180.745 154.087 177.109 166.292 178.517 171.221C179.924 176.15 186.141 171.69 192.474 177.089C198.808 182.487 204.673 192.227 228.6 194.105C252.527 195.865 266.954 182.956 271.998 175.798C276.924 168.522 276.455 159.955 285.134 159.485C293.697 159.016 286.542 142.352 283.727 139.652C283.727 139.652 300.382 114.773 300.382 108.436C300.382 102.099 284.548 103.507 265.195 109.375C265.195 109.375 250.768 101.747 224.612 106.206C198.456 110.666 190.715 118.411 190.715 118.411C190.715 118.411 158.225 122.519 155.997 126.509C153.651 130.616 160.454 147.75 180.745 154.087Z" fill="white"/>
</mask>
<g mask="url(#mask12_120_523)">
<path d="M285.133 159.485C293.696 159.016 286.541 142.352 283.726 139.652C283.726 139.652 286.893 134.958 290.529 129.091C280.794 124.044 271.293 121.228 268.713 124.044C263.317 130.147 266.25 141.882 268.713 153.266C271.176 164.649 261.323 169.695 254.286 179.553C247.366 189.528 237.396 178.614 237.396 178.614C233.877 193.049 219.099 183.543 219.099 183.543C207.721 180.023 188.368 168.639 192.356 160.659C196.344 152.679 197.282 145.285 190.362 138.831C183.442 132.376 155.761 126.978 155.761 126.978C154.354 131.907 161.391 147.867 180.862 153.97C180.862 153.97 177.226 166.175 178.633 171.104C180.041 176.032 186.257 171.573 192.591 176.971C198.924 182.37 204.789 192.11 228.716 193.988C252.644 195.748 267.071 182.839 272.114 175.68C276.923 168.522 276.454 159.955 285.133 159.485Z" fill="#B08B6F"/>
</g>
<mask id="mask13_120_523" style="mask-type:luminance" maskUnits="userSpaceOnUse" x="155" y="104" width="146" height="91">
<path d="M180.745 154.087C180.745 154.087 177.109 166.292 178.517 171.221C179.924 176.15 186.141 171.69 192.474 177.089C198.808 182.487 204.673 192.227 228.6 194.105C252.527 195.865 266.954 182.956 271.998 175.798C276.924 168.522 276.455 159.955 285.134 159.485C293.697 159.016 286.542 142.352 283.727 139.652C283.727 139.652 300.382 114.773 300.382 108.436C300.382 102.099 284.548 103.507 265.195 109.375C265.195 109.375 250.768 101.747 224.612 106.206C198.456 110.666 190.715 118.411 190.715 118.411C190.715 118.411 158.225 122.519 155.997 126.509C153.651 130.616 160.454 147.75 180.745 154.087Z" fill="white"/>
</mask>
<g mask="url(#mask13_120_523)">
<path opacity="0.5" d="M285.133 159.485C293.696 159.016 286.541 142.352 283.726 139.652C283.726 139.652 286.893 134.958 290.529 129.091C280.794 124.044 271.293 121.228 268.713 124.044C263.317 130.147 266.25 141.882 268.713 153.266C271.176 164.649 261.323 169.695 254.286 179.553C247.366 189.528 237.396 178.614 237.396 178.614C233.877 193.049 219.099 183.543 219.099 183.543C207.721 180.023 188.368 168.639 192.356 160.659C196.344 152.679 197.282 145.285 190.362 138.831C183.442 132.376 155.761 126.978 155.761 126.978C154.354 131.907 161.391 147.867 180.862 153.97C180.862 153.97 177.226 166.175 178.633 171.104C180.041 176.032 186.257 171.573 192.591 176.971C198.924 182.37 204.789 192.11 228.716 193.988C252.644 195.748 267.071 182.839 272.114 175.68C276.923 168.522 276.454 159.955 285.133 159.485Z" fill="white"/>
</g>
<mask id="mask14_120_523" style="mask-type:luminance" maskUnits="userSpaceOnUse" x="151" y="97" width="143" height="98">
<path d="M179.97 160.426C179.97 160.426 177.766 172.967 179.733 177.7C181.699 182.432 187.36 177.284 194.274 181.913C201.189 186.542 208.138 195.538 232.123 194.635C256.094 193.616 268.937 179.127 273.121 171.434C277.175 163.638 275.721 155.184 284.289 153.714C292.74 152.258 283.711 136.535 280.603 134.18C280.603 134.18 294.279 107.544 293.548 101.251C292.817 94.9568 277.25 98.1867 258.702 106.253C258.702 106.253 243.491 100.345 218.023 107.799C192.555 115.253 185.759 123.841 185.759 123.841C185.759 123.841 153.959 131.678 152.205 135.898C150.349 140.249 159.083 156.479 179.97 160.426Z" fill="white"/>
</mask>
<g mask="url(#mask14_120_523)">
<path d="M235.648 169.066C243.82 168.115 250.178 165.048 249.849 162.215C249.52 159.383 242.628 157.858 234.456 158.809C226.285 159.76 219.927 162.827 220.256 165.66C220.585 168.492 227.476 170.017 235.648 169.066Z" fill="#B08B6F"/>
</g>
<mask id="mask15_120_523" style="mask-type:luminance" maskUnits="userSpaceOnUse" x="151" y="97" width="143" height="98">
<path d="M179.97 160.426C179.97 160.426 177.766 172.967 179.733 177.7C181.699 182.432 187.36 177.284 194.274 181.913C201.189 186.542 208.138 195.538 232.123 194.635C256.094 193.616 268.937 179.127 273.121 171.434C277.175 163.638 275.721 155.184 284.289 153.714C292.74 152.258 283.711 136.535 280.603 134.18C280.603 134.18 294.279 107.544 293.548 101.251C292.817 94.9568 277.25 98.1867 258.702 106.253C258.702 106.253 243.491 100.345 218.023 107.799C192.555 115.253 185.759 123.841 185.759 123.841C185.759 123.841 153.959 131.678 152.205 135.898C150.349 140.249 159.083 156.479 179.97 160.426Z" fill="white"/>
</mask>
<g mask="url(#mask15_120_523)">
<path opacity="0.5" d="M235.648 169.066C243.82 168.115 250.178 165.048 249.849 162.215C249.52 159.383 242.628 157.858 234.456 158.809C226.285 159.76 219.927 162.827 220.256 165.66C220.585 168.492 227.476 170.017 235.648 169.066Z" fill="white"/>
</g>
<path d="M180.745 154.087C180.745 154.087 177.109 166.292 178.517 171.221C179.924 176.15 186.141 171.69 192.474 177.089C198.808 182.487 204.673 192.227 228.6 194.105C252.527 195.865 266.954 182.956 271.998 175.798C276.924 168.522 276.455 159.955 285.134 159.485C293.697 159.016 286.542 142.352 283.727 139.652C283.727 139.652 300.382 114.773 300.382 108.436C300.382 102.099 284.548 103.507 265.195 109.375C265.195 109.375 250.768 101.747 224.612 106.206C198.456 110.666 190.715 118.411 190.715 118.411C190.715 118.411 158.225 122.519 155.997 126.509C153.651 130.616 160.454 147.75 180.745 154.087Z" stroke="#263238" stroke-width="1.1133" stroke-miterlimit="10"/>
<path d="M274.227 117.824C262.498 125.687 266.603 133.55 271.882 138.009C275.048 140.709 280.209 140.357 283.728 139.652C283.728 139.652 300.383 114.773 300.383 108.436C300.501 108.436 285.839 109.962 274.227 117.824Z" fill="#B08B6F" stroke="#263238" stroke-width="1.1133" stroke-miterlimit="10"/>
<path d="M155.763 127.095C154.356 132.024 161.393 147.985 180.864 154.087C180.864 154.087 195.76 152.679 190.716 140.709C186.024 129.443 162.683 126.626 155.763 127.095Z" fill="#B08B6F" stroke="#263238" stroke-width="1.1133" stroke-miterlimit="10"/>
<path d="M224.613 106.206C223.088 106.441 221.563 106.793 220.156 107.028C222.502 118.88 226.372 138.596 229.774 138.596C233.292 138.596 235.873 117.003 236.928 104.798C233.175 105.033 229.07 105.385 224.613 106.206Z" fill="#B08B6F" stroke="#263238" stroke-width="1.1133" stroke-miterlimit="10"/>
<path d="M211.124 135.076C214.76 132.963 214.174 117.12 213.588 108.436C209.248 109.492 205.612 110.666 202.679 111.839C203.97 119.937 207.254 137.305 211.124 135.076Z" fill="#B08B6F" stroke="#263238" stroke-width="1.1133" stroke-miterlimit="10"/>
<path d="M245.843 127.799C249.479 129.09 251.59 115.829 252.763 105.737C249.597 105.267 245.843 104.798 241.503 104.798C241.386 113.13 241.855 126.391 245.843 127.799Z" fill="#B08B6F" stroke="#263238" stroke-width="1.1133" stroke-miterlimit="10"/>
<path d="M240.916 173.451C238.922 172.981 234.699 172.394 230.711 174.741C230.125 175.094 230.008 175.915 230.477 176.384L236.693 182.252C237.162 182.722 237.983 182.604 238.335 181.9L241.502 174.859C241.854 174.272 241.502 173.685 240.916 173.451Z" fill="#B08B6F" stroke="#263238" stroke-width="1.1133" stroke-miterlimit="10" stroke-linecap="round" stroke-linejoin="round"/>
<path d="M225.325 168.599C226.596 168.114 226.934 165.904 226.08 163.663C225.227 161.423 223.504 159.999 222.233 160.484C220.962 160.969 220.623 163.178 221.477 165.419C222.331 167.66 224.053 169.083 225.325 168.599Z" fill="#263238"/>
<path d="M248.01 162.947C248.452 160.59 247.726 158.476 246.389 158.225C245.052 157.974 243.61 159.682 243.168 162.039C242.727 164.396 243.453 166.51 244.79 166.761C246.127 167.011 247.569 165.304 248.01 162.947Z" fill="#263238"/>
<path d="M238.453 181.9C238.453 181.9 230.126 193.166 222.502 181.783" stroke="#263238" stroke-width="1.1133" stroke-miterlimit="10" stroke-linecap="round" stroke-linejoin="round"/>
<path d="M236.81 182.135C236.81 182.135 242.323 187.885 248.188 184.717C254.052 181.548 250.533 176.502 250.533 176.502" stroke="#263238" stroke-width="1.1133" stroke-miterlimit="10" stroke-linecap="round" stroke-linejoin="round"/>
<path d="M211.476 154.674C211.476 154.674 213.47 147.398 223.205 149.158" stroke="#263238" stroke-width="3.3399" stroke-miterlimit="10" stroke-linecap="round" stroke-linejoin="round"/>
<path d="M240.564 147.985C240.564 147.985 247.836 143.643 254.522 150.567" stroke="#263238" stroke-width="3.3399" stroke-miterlimit="10" stroke-linecap="round" stroke-linejoin="round"/>
<path d="M205.845 174.154L212.883 175.915" stroke="#263238" stroke-width="1.1133" stroke-miterlimit="10" stroke-linecap="round"/>
<path d="M212.062 178.614L205.845 179.788" stroke="#263238" stroke-width="1.1133" stroke-miterlimit="10" stroke-linecap="round"/>
<path d="M213.119 181.783L208.779 184.13" stroke="#263238" stroke-width="1.1133" stroke-miterlimit="10" stroke-linecap="round"/>
<path d="M257.572 170.986L263.671 169.578" stroke="#263238" stroke-width="1.1133" stroke-miterlimit="10" stroke-linecap="round"/>
<path d="M258.744 173.92H262.732" stroke="#263238" stroke-width="1.1133" stroke-miterlimit="10" stroke-linecap="round"/>
<path d="M259.566 176.854L265.079 178.262" stroke="#263238" stroke-width="1.1133" stroke-miterlimit="10" stroke-linecap="round"/>
</g>
<defs>
<clipPath id="clip0_120_523">
<rect width="504" height="449" fill="white"/>
</clipPath>
</defs>
</svg>
