<svg width="128" height="128" viewBox="0 0 128 128" fill="none" xmlns="http://www.w3.org/2000/svg">
<rect x="63.6387" width="90" height="90" transform="rotate(45 63.6387 0)" fill="#B08B6F"/>
<path d="M82.4088 50.0161C82.2229 48.8393 81.2006 47.961 80.0215 47.961C80.0157 47.961 80.004 47.961 79.9982 47.961C72.6679 48.0371 65.5989 50.6719 59.982 55.3911C59.8078 53.3184 59.2211 51.2984 58.2511 49.4482C56.9268 46.9247 54.9344 44.8168 52.5007 43.3531C51.519 42.7617 50.2934 42.9257 49.5267 43.7512C45.8789 47.6683 43.9157 52.7856 44.0028 58.1605C44.0841 63.3363 46.059 68.2077 49.579 71.9491C49.2479 73.2255 48.9981 74.5253 48.8297 75.8486C48.76 76.3931 49.1375 76.8908 49.6835 76.9669C49.7242 76.9727 49.7706 76.9727 49.8113 76.9727C50.2992 76.9727 50.7232 76.6097 50.7871 76.1062C50.9672 74.7303 51.2344 73.3836 51.5945 72.0779C51.6352 71.9901 51.6584 71.9023 51.67 71.8086C55.2307 59.2261 66.7432 50.0922 80.0331 49.9517C80.0331 49.9517 80.0331 49.9517 80.0389 49.9517C80.248 49.9517 80.4455 50.1215 80.4803 50.3264C81.2122 54.9812 81.2355 59.7004 80.55 64.361C80.5384 64.3961 80.5268 64.4312 80.521 64.4664C79.156 70.3741 75.3456 75.4212 70.054 78.3077C65.3898 80.8605 59.9588 81.528 54.8647 80.234C56.5841 79.0923 58.2337 77.8393 59.8078 76.4751C63.9609 72.8742 67.4518 68.6176 70.1818 63.834C70.4548 63.3598 70.2922 62.7508 69.8159 62.4757C69.3454 62.2005 68.7413 62.3644 68.4683 62.8445C64.4837 69.7827 58.7855 75.5792 52.0127 79.6661C51.9837 79.6778 51.9605 79.6953 51.9314 79.7129C49.759 81.0186 47.4821 82.1427 45.1122 83.0795C44.6069 83.2786 44.3513 83.8583 44.5546 84.3677C44.7056 84.7599 45.0774 85 45.4723 85C45.5943 85 45.7163 84.9766 45.8325 84.9297C48.1791 84.0046 50.4328 82.9039 52.5936 81.6334C54.9983 82.4531 57.496 82.8629 59.9879 82.8629C63.7866 82.8629 67.568 81.9202 70.9718 80.0525C76.699 76.9259 80.8463 71.4807 82.3739 65.1046C82.4088 65.0226 82.4378 64.9348 82.4494 64.8411C83.1987 59.9229 83.1813 54.9344 82.4088 50.0161ZM53.9179 62.1712C53.9063 61.1056 53.8599 60.1161 53.7785 59.1676C53.5985 57.1417 53.2558 55.0105 52.733 52.6392C52.6168 52.1005 52.0883 51.7668 51.5539 51.8839C51.0195 52.001 50.6884 52.5338 50.8046 53.0725C51.3099 55.3559 51.641 57.4052 51.8094 59.3432C51.9721 61.1993 51.9895 63.2427 51.8559 65.7545C51.2286 67.0309 50.6826 68.3483 50.2295 69.7066C44.2816 62.5518 44.4849 52.0537 50.9556 45.1096C51.0834 44.9691 51.3041 44.9515 51.4842 45.0569C55.7186 47.598 58.2104 52.2001 58.0536 57.1417C56.4969 58.6816 55.1145 60.3678 53.9179 62.1712Z" fill="white"/>
</svg>
