<svg width="25" height="25" viewBox="0 0 25 25" fill="none" xmlns="http://www.w3.org/2000/svg">
<path d="M23.0606 13.4823L10.0666 0.247681C9.74209 -0.0823057 9.21657 -0.0828149 8.89056 0.247681C8.56655 0.578686 8.56655 1.11542 8.89056 1.44592L21.8855 14.68C23.8211 16.6503 23.8211 19.8575 21.8855 21.8277C19.9509 23.7979 16.8028 23.7979 14.8673 21.8272L2.64734 9.38241C1.3353 8.04617 1.3353 5.87019 2.64734 4.53445C3.95839 3.19821 6.09546 3.19872 7.40751 4.53496L17.9684 15.2906C18.6234 15.9587 18.6244 17.0439 17.9674 17.7125C17.3139 18.3796 16.2483 18.3791 15.5923 17.711L6.34847 8.29875C6.02346 7.96876 5.49794 7.96825 5.17243 8.29926C4.84792 8.62975 4.84792 9.16598 5.17243 9.49699L14.4153 18.9103C15.7188 20.2384 17.8419 20.2399 19.1454 18.9123C20.4495 17.5827 20.4495 15.421 19.1454 14.0918L8.58505 3.33571C6.62348 1.33796 3.43137 1.33847 1.4703 3.33571C-0.490267 5.33345 -0.490267 8.58392 1.4713 10.5812L13.6897 23.0259C16.2743 25.6577 20.478 25.6582 23.0626 23.0264C25.6466 20.3947 25.6456 16.1145 23.0606 13.4823Z" fill="white"/>
</svg>
