<svg width="30" height="31" viewBox="0 0 30 31" fill="none" xmlns="http://www.w3.org/2000/svg">
<path d="M8.85817 8.87784C8.38043 9.36599 8.38043 10.1574 8.85817 10.6456L13.244 15.127L8.85817 19.6085C8.38043 20.0966 8.38043 20.8881 8.85817 21.3763C9.33591 21.8644 10.1105 21.8644 10.5882 21.3763L14.9741 16.8948L19.3599 21.3762C19.8376 21.8644 20.6122 21.8644 21.0899 21.3762C21.5677 20.8881 21.5677 20.0966 21.0899 19.6085L16.7041 15.127L21.0899 10.6456C21.5677 10.1575 21.5677 9.36601 21.0899 8.87785C20.6122 8.3897 19.8376 8.3897 19.3599 8.87785L14.9741 13.3593L10.5882 8.87784C10.1105 8.38968 9.33591 8.38968 8.85817 8.87784Z" fill="white"/>
</svg>
