<svg width="61" height="50" viewBox="0 0 61 50" fill="none" xmlns="http://www.w3.org/2000/svg">
<path d="M46.3237 14.6719C45.8602 14.2052 45.106 14.2021 44.6388 14.6651C44.1718 15.1282 44.1687 15.882 44.6321 16.3488L44.6393 16.3562C44.8713 16.5899 45.1753 16.7063 45.4797 16.7063C45.7833 16.7063 46.0873 16.5904 46.3206 16.3592C46.7877 15.8961 46.7872 15.1387 46.3237 14.6719Z" fill="#AD856D"/>
<path d="M60.6509 28.9884L49.5854 17.9312C49.1202 17.4664 48.3658 17.4664 47.9004 17.9312C47.4352 18.3961 47.4352 19.1499 47.9004 19.6149L56.6849 28.3926H35.737C33.9992 28.3926 32.5856 26.98 32.5856 25.2436V4.31176L41.0664 12.786C41.5316 13.2508 42.286 13.2508 42.7514 12.786C43.2166 12.3211 43.2166 11.5673 42.7514 11.1023L31.9894 0.348579C31.5242 -0.116193 30.7698 -0.116193 30.3046 0.348579L11.3112 19.3279C10.8459 19.7928 10.8459 20.5466 11.3112 21.0116L39.9727 49.6513C40.1961 49.8745 40.4992 50 40.8151 50C41.1311 50 41.4342 49.8745 41.6576 49.6513L60.651 30.6721C60.8744 30.4487 61 30.146 61 29.8303C60.9999 29.5146 60.8743 29.2117 60.6509 28.9884ZM30.203 3.81758V18.9793H15.0298L30.203 3.81758ZM39.6237 45.9353L15.0298 21.3602H30.203V25.2436C30.203 28.2929 32.6857 30.7736 35.7372 30.7736H39.6237V45.9353ZM42.0064 45.9354V30.7736H57.1795L42.0064 45.9354Z" fill="#AD856D"/>
<path d="M8.17672 24.7618H1.1914C0.533392 24.7618 0 25.2949 0 25.9523C0 26.6097 0.533392 27.1428 1.1914 27.1428H8.17672C8.83474 27.1428 9.36813 26.6099 9.36813 25.9523C9.36813 25.2949 8.83474 24.7618 8.17672 24.7618Z" fill="#AD856D"/>
<path d="M11.7289 24.7618H11.711C11.053 24.7618 10.5196 25.2949 10.5196 25.9523C10.5196 26.6097 11.053 27.1428 11.711 27.1428H11.7289C12.3869 27.1428 12.9203 26.6097 12.9203 25.9523C12.9203 25.2949 12.3869 24.7618 11.7289 24.7618Z" fill="#AD856D"/>
<path d="M5.0058 12.2619H1.19295C0.53494 12.2619 0.00154883 12.795 0.00154883 13.4524C0.00154883 14.1098 0.53494 14.6429 1.19295 14.6429H5.0058C5.66382 14.6429 6.19721 14.1098 6.19721 13.4524C6.19721 12.795 5.66382 12.2619 5.0058 12.2619Z" fill="#AD856D"/>
<path d="M13.4045 12.2619H8.89764C8.23963 12.2619 7.70624 12.795 7.70624 13.4524C7.70624 14.1098 8.23963 14.6429 8.89764 14.6429H13.4045C14.0625 14.6429 14.5959 14.1098 14.5959 13.4524C14.5959 12.795 14.0625 12.2619 13.4045 12.2619Z" fill="#AD856D"/>
<path d="M15.9984 31.3095H9.32667C8.66866 31.3095 8.13526 31.8426 8.13526 32.5C8.13526 33.1574 8.66866 33.6905 9.32667 33.6905H15.9984C16.6564 33.6905 17.1898 33.1574 17.1898 32.5C17.1898 31.8426 16.6563 31.3095 15.9984 31.3095Z" fill="#AD856D"/>
<path d="M21.2079 38.9285H4.40927C3.75125 38.9285 3.21786 39.4616 3.21786 40.119C3.21786 40.7763 3.75125 41.3095 4.40927 41.3095H21.2079C21.866 41.3095 22.3993 40.7763 22.3993 40.119C22.3993 39.4616 21.866 38.9285 21.2079 38.9285Z" fill="#AD856D"/>
</svg>
