<svg width="51" height="51" viewBox="0 0 51 51" fill="none" xmlns="http://www.w3.org/2000/svg">
<path d="M29.0285 0C28.4762 0 28.0285 0.447715 28.0285 1C28.0285 1.55228 28.4762 2 29.0285 2V0ZM49 21.9761C49 22.5284 49.4477 22.9761 50 22.9761C50.5523 22.9761 51 22.5284 51 21.9761H49ZM29.0285 5.99282C28.4762 5.99282 28.0285 6.44054 28.0285 6.99282C28.0285 7.54511 28.4762 7.99282 29.0285 7.99282V5.99282ZM43.0084 21.9761C43.0084 22.5284 43.4561 22.9761 44.0084 22.9761C44.5607 22.9761 45.0084 22.5284 45.0084 21.9761H43.0084ZM29.0285 11.9868C28.4762 11.9868 28.0285 12.4345 28.0285 12.9868C28.0285 13.5391 28.4762 13.9868 29.0285 13.9868V11.9868ZM37.0158 21.9761C37.0158 22.5284 37.4636 22.9761 38.0158 22.9761C38.5681 22.9761 39.0158 22.5284 39.0158 21.9761H37.0158ZM29.0285 17.9796C28.4762 17.9796 28.0285 18.4274 28.0285 18.9796C28.0285 19.5319 28.4762 19.9796 29.0285 19.9796V17.9796ZM31.0243 21.9761C31.0243 22.5284 31.472 22.9761 32.0243 22.9761C32.5766 22.9761 33.0243 22.5284 33.0243 21.9761H31.0243ZM13.9677 29.5477C14.3022 29.9872 14.9296 30.0723 15.369 29.7378C15.8085 29.4033 15.8936 28.7759 15.5591 28.3364L13.9677 29.5477ZM12.9689 26.3721L12.126 26.9103L12.1262 26.9105L12.9689 26.3721ZM13.425 22.7014L12.7179 21.9944L12.7178 21.9944L13.425 22.7014ZM16.8064 19.3193L16.0997 18.6118L16.0992 18.6123L16.8064 19.3193ZM16.8064 16.6845L16.0992 17.3915L16.0996 17.3919L16.8064 16.6845ZM8.8487 8.72523L8.14098 9.43173L8.14152 9.43227L8.8487 8.72523ZM6.21454 8.72523L6.92169 9.4323L6.92225 9.43173L6.21454 8.72523ZM4.20065 10.7394L4.90774 11.4465L4.9078 11.4464L4.20065 10.7394ZM2.10031 23.1386L2.99644 22.6948L2.9964 22.6947L2.10031 23.1386ZM27.7328 48.9053L27.2925 49.8032L27.2927 49.8033L27.7328 48.9053ZM40.1681 46.8065L40.8753 47.5135L40.8753 47.5135L40.1681 46.8065ZM42.2277 44.7464L41.521 44.0388L41.5205 44.0393L42.2277 44.7464ZM42.2277 42.1105L42.935 41.4036L42.9349 41.4034L42.2277 42.1105ZM34.2701 34.1523L33.5624 34.8588L33.5629 34.8594L34.2701 34.1523ZM31.6359 34.1523L32.3431 34.8593L32.3436 34.8588L31.6359 34.1523ZM28.2547 37.5342L28.9618 38.2413L28.9619 38.2413L28.2547 37.5342ZM24.5846 37.9905L24.0459 38.833L24.0463 38.8333L24.5846 37.9905ZM21.6096 34.6015C21.182 34.2518 20.552 34.315 20.2024 34.7425C19.8527 35.17 19.9159 35.8 20.3434 36.1496L21.6096 34.6015ZM29.0285 2C40.0399 2 49 10.9618 49 21.9761H51C51 9.85767 41.1448 0 29.0285 0V2ZM29.0285 7.99282C36.7354 7.99282 43.0084 14.267 43.0084 21.9761H45.0084C45.0084 13.1629 37.8404 5.99282 29.0285 5.99282V7.99282ZM29.0285 13.9868C33.4319 13.9868 37.0158 17.5713 37.0158 21.9761H39.0158C39.0158 16.4671 34.5369 11.9868 29.0285 11.9868V13.9868ZM29.0285 19.9796C30.1302 19.9796 31.0243 20.8736 31.0243 21.9761H33.0243C33.0243 19.7695 31.2353 17.9796 29.0285 17.9796V19.9796ZM17.6695 32.3486C17.6695 32.3496 17.6694 32.3496 17.6696 32.3489C17.6697 32.3482 17.67 32.3475 17.6702 32.3468C17.6707 32.3457 17.671 32.3456 17.6707 32.3459C17.6703 32.3463 17.6704 32.346 17.6717 32.3455C17.6723 32.3452 17.6731 32.3449 17.6738 32.3448C17.6746 32.3446 17.6746 32.3447 17.6736 32.3447V34.3447C18.7762 34.3447 19.6695 33.4508 19.6695 32.3486H17.6695ZM17.6736 32.3447C17.6726 32.3447 17.6727 32.3446 17.6734 32.3448C17.6742 32.3449 17.6749 32.3452 17.6756 32.3455C17.6768 32.346 17.6769 32.3463 17.6766 32.3459C17.6762 32.3455 17.6765 32.3456 17.677 32.3468C17.6772 32.3474 17.6775 32.3482 17.6776 32.3489C17.6777 32.3496 17.6777 32.3496 17.6777 32.3486H15.6777C15.6777 33.4509 16.5712 34.3447 17.6736 34.3447V32.3447ZM17.6777 32.3486C17.6777 32.3475 17.6777 32.3475 17.6776 32.3483C17.6775 32.349 17.6772 32.3497 17.6769 32.3504C17.6765 32.3515 17.6762 32.3516 17.6766 32.3512C17.677 32.3508 17.6769 32.3511 17.6756 32.3516C17.675 32.3519 17.6742 32.3522 17.6735 32.3523C17.6727 32.3525 17.6726 32.3524 17.6736 32.3524V30.3524C16.5711 30.3524 15.6777 31.2464 15.6777 32.3486H17.6777ZM17.6736 32.3524C17.6746 32.3524 17.6746 32.3525 17.6738 32.3523C17.6731 32.3522 17.6723 32.3519 17.6716 32.3516C17.6704 32.3511 17.6703 32.3508 17.6706 32.3512C17.671 32.3516 17.6707 32.3515 17.6702 32.3503C17.67 32.3497 17.6697 32.3489 17.6696 32.3483C17.6695 32.3475 17.6695 32.3475 17.6695 32.3486H19.6695C19.6695 31.2465 18.7762 30.3524 17.6736 30.3524V32.3524ZM15.5591 28.3364C14.9438 27.528 14.3607 26.6932 13.8116 25.8337L12.1262 26.9105C12.7049 27.8162 13.3193 28.6959 13.9677 29.5477L15.5591 28.3364ZM13.8118 25.834C13.3428 25.0994 13.4649 24.076 14.1323 23.4084L12.7178 21.9944C11.4394 23.2733 11.1133 25.324 12.126 26.9103L13.8118 25.834ZM14.1322 23.4084L17.5135 20.0263L16.0992 18.6123L12.7179 21.9944L14.1322 23.4084ZM17.5131 20.0268C18.6321 18.9091 18.632 17.0949 17.5132 15.9771L16.0996 17.3919C16.4366 17.7286 16.4365 18.2754 16.0997 18.6118L17.5131 20.0268ZM17.5135 15.9774L9.55587 8.0182L8.14152 9.43227L16.0992 17.3915L17.5135 15.9774ZM9.55642 8.01874C8.43872 6.89911 6.62452 6.89911 5.50682 8.01874L6.92225 9.43173C7.25863 9.09478 7.80461 9.09478 8.14098 9.43173L9.55642 8.01874ZM5.50739 8.01817L3.49349 10.0323L4.9078 11.4464L6.92169 9.4323L5.50739 8.01817ZM3.49355 10.0323C-0.0700376 13.5958 -1.04308 19.0454 1.20421 23.5825L2.9964 22.6947C1.14041 18.9477 1.93417 14.42 4.90774 11.4465L3.49355 10.0323ZM1.20417 23.5824C4.91296 31.0714 12.5569 42.5758 27.2925 49.8032L28.1732 48.0075C13.9667 41.0396 6.5879 29.947 2.99644 22.6948L1.20417 23.5824ZM27.2927 49.8033C31.8356 52.0301 37.3062 51.0834 40.8753 47.5135L39.4609 46.0995C36.4887 49.0724 31.9382 49.8531 28.173 48.0074L27.2927 49.8033ZM40.8753 47.5135L42.9349 45.4534L41.5205 44.0393L39.4609 46.0995L40.8753 47.5135ZM42.9344 45.4539C44.0538 44.3358 44.0529 42.522 42.935 41.4036L41.5205 42.8174C41.8584 43.1556 41.8576 43.7027 41.521 44.0388L42.9344 45.4539ZM42.9349 41.4034L34.9772 33.4452L33.5629 34.8594L41.5206 42.8176L42.9349 41.4034ZM34.9778 33.4458C33.8601 32.3261 32.0459 32.3261 30.9282 33.4458L32.3436 34.8588C32.68 34.5218 33.226 34.5218 33.5624 34.8588L34.9778 33.4458ZM30.9287 33.4452L27.5475 36.8272L28.9619 38.2413L32.3431 34.8593L30.9287 33.4452ZM27.5476 36.8271C26.8801 37.4947 25.8572 37.6167 25.1228 37.1477L24.0463 38.8333C25.6327 39.8464 27.6831 39.5201 28.9618 38.2413L27.5476 36.8271ZM25.1232 37.1479C23.9008 36.3665 22.7278 35.516 21.6096 34.6015L20.3434 36.1496C21.5218 37.1134 22.7579 38.0097 24.0459 38.833L25.1232 37.1479Z" fill="#AD856D"/>
</svg>
