<svg width="34" height="51" viewBox="0 0 34 51" fill="none" xmlns="http://www.w3.org/2000/svg">
<path d="M17.098 3.98488C16.5451 3.9809 16.0941 4.42416 16.0901 4.974C16.0861 5.52385 16.5301 5.97309 17.083 5.97707C17.635 5.98106 18.086 5.53879 18.09 4.98895C18.094 4.4391 17.65 3.98986 17.098 3.98488Z" fill="#AD856D"/>
<path d="M17.0525 9.96136C13.1915 9.93406 10.0295 13.0368 10.0003 16.8816C9.97118 20.7263 13.0877 23.8775 16.9475 23.9065C16.9654 23.9066 16.9832 23.9067 17.0011 23.9067C20.8364 23.9067 23.9708 20.8132 23.9998 16.9862C24.0289 13.1418 20.9125 9.99034 17.0525 9.96136ZM17.0009 21.9146C16.9883 21.9146 16.9751 21.9145 16.9625 21.9144C14.2055 21.8937 11.9793 19.6427 12.0001 16.8966C12.0208 14.1628 14.2596 11.9532 16.9991 11.9532C17.0117 11.9532 17.0249 11.9533 17.0375 11.9534C19.7946 11.9742 22.0208 14.2251 22 16.9713C21.9792 19.7051 19.7405 21.9146 17.0009 21.9146Z" fill="#AD856D"/>
<path d="M21.3631 4.74032C20.8429 4.55644 20.271 4.82788 20.0864 5.34644C19.9019 5.86501 20.1744 6.43428 20.6949 6.61816C25.0995 8.17316 28.0349 12.3519 27.9997 17.0163C27.9956 17.5663 28.4399 18.0157 28.9922 18.0199C28.9947 18.0199 28.9973 18.0199 28.9999 18.0199C29.5485 18.0199 29.9955 17.5788 29.9997 17.0312C30.0413 11.5182 26.5705 6.57881 21.3631 4.74032Z" fill="#AD856D"/>
<path d="M23.1356 37.4972C29.7868 28.9692 33.9434 24.5221 33.9995 17.0609C34.0699 7.67342 26.4219 0 16.9984 0C7.68502 0 0.071371 7.51335 0.000572385 16.8069C-0.0566265 24.4704 4.17719 28.9114 10.8743 37.4958C4.21189 38.4875 0.000572385 40.9795 0.000572385 44.0274C0.000572385 46.0691 1.89514 47.9012 5.33537 49.1862C8.46661 50.3558 12.6092 51 17 51C21.3909 51 25.5335 50.3558 28.6647 49.1862C32.105 47.9011 33.9995 46.069 33.9995 44.0273C33.9995 40.9811 29.7921 38.4897 23.1356 37.4972ZM2.00043 16.822C2.06283 8.62121 8.7802 1.99219 16.9986 1.99219C25.3144 1.99219 32.0617 8.76445 31.9997 17.0461C31.9465 24.1317 27.5383 28.4983 20.5008 37.6368C19.2455 39.266 18.0927 40.8064 17.0015 42.3131C15.9136 40.8055 14.7838 39.2927 13.5097 37.6362C6.18125 28.1151 1.94624 24.0785 2.00043 16.822ZM17 49.0079C8.41511 49.0079 2.00043 46.3785 2.00043 44.0274C2.00043 42.2839 5.83516 40.0813 12.2828 39.3186C13.7081 41.1814 14.9577 42.8737 16.1833 44.6022C16.3705 44.8661 16.6747 45.0233 16.9991 45.0235C16.9994 45.0235 16.9997 45.0235 17 45.0235C17.3242 45.0235 17.6283 44.8669 17.8158 44.6035C19.0298 42.8976 20.3136 41.1635 21.7267 39.3197C28.1683 40.0832 31.9997 42.2851 31.9997 44.0275C31.9996 46.3785 25.585 49.0079 17 49.0079Z" fill="#AD856D"/>
</svg>
