<svg width="190" height="77" viewBox="0 0 190 77" fill="none" xmlns="http://www.w3.org/2000/svg">
<path d="M0.0795778 40.9309C2.91785 41.0373 5.14603 41.0905 6.76411 41.0905C8.31588 41.0905 10.0268 41.0373 11.8969 40.9309C11.9499 41.1437 11.9765 41.29 11.9765 41.3698C11.9765 41.5161 11.9499 41.6824 11.8969 41.8686C10.743 41.9218 9.94723 42.0681 9.50955 42.3076C9.08513 42.5337 8.87293 42.833 8.87293 43.2054C8.87293 43.3118 8.88619 43.4382 8.91271 43.5845C8.9525 43.7175 11.6449 50.3881 16.9899 63.5963H17.1888L21.0682 53.2213L17.5668 44.3227C17.0098 42.8862 15.6768 42.0681 13.568 41.8686C13.515 41.6292 13.4884 41.4629 13.4884 41.3698C13.4884 41.2368 13.515 41.0905 13.568 40.9309C15.4381 41.0373 17.5138 41.0905 19.795 41.0905C21.8905 41.0905 23.8733 41.0373 25.7434 40.9309C25.7965 41.1437 25.823 41.29 25.823 41.3698C25.823 41.5161 25.7965 41.6824 25.7434 41.8686C24.1386 41.9218 23.0975 42.0482 22.62 42.2477C22.1558 42.4339 21.9237 42.7931 21.9237 43.3251C21.9237 43.3384 22.0165 43.6709 22.2022 44.3227L29.5433 63.5963H29.7422L37.0037 44.0633C37.0833 43.8638 37.1231 43.6044 37.1231 43.2852C37.1231 42.8596 36.8644 42.5536 36.3472 42.3674C35.8299 42.1679 34.9877 42.0016 33.8206 41.8686C33.7675 41.576 33.741 41.3964 33.741 41.3299C33.741 41.2235 33.7675 41.0905 33.8206 40.9309C35.625 40.885 36.8538 40.885 38.3393 40.885C39.7849 40.885 41.4468 41.4097 42.8527 41.3299C42.8527 41.2235 42.9057 41.4895 42.8527 41.3299C42.8527 41.5427 42.8261 41.7223 42.7731 41.8686C41.8314 41.9617 41.0489 42.1612 40.4255 42.4672C39.8154 42.7731 39.338 43.3051 38.9931 44.0633L28.8867 70.8388H27.9915L22.0033 55.6355L16.3333 70.8388H15.4381L4.51604 44.3227C3.93247 42.9128 2.45365 42.0947 0.0795778 41.8686C0.0265259 41.6292 0 41.4629 0 41.3698C0 41.2368 0.0265259 41.0905 0.0795778 40.9309Z" fill="white"/>
<path d="M52.9192 63.9155H46.4138C46.3819 64.3944 46.366 64.8173 46.366 65.1845C46.3899 66.3736 46.736 67.3273 47.4045 68.0456C48.073 68.7559 48.9682 69.111 50.0903 69.111C50.3926 69.111 50.6751 69.0791 50.9378 69.0152C51.2004 68.9434 51.4152 68.8636 51.5823 68.7758C51.7574 68.688 51.9365 68.5603 52.1195 68.3927C52.3025 68.2251 52.4338 68.0934 52.5134 67.9977C52.6009 67.8939 52.7163 67.7423 52.8596 67.5428C53.0028 67.3353 53.0983 67.2036 53.146 67.1477C53.337 67.1876 53.4922 67.2754 53.6116 67.4111C53.2137 68.4805 52.597 69.2826 51.7614 69.8173C50.9258 70.344 50.0186 70.6074 49.0398 70.6074C48.5544 70.6074 48.0809 70.5435 47.6194 70.4159C47.1658 70.2961 46.7241 70.0966 46.2944 69.8173C45.8647 69.538 45.4907 69.1948 45.1723 68.7878C44.854 68.3728 44.5994 67.858 44.4084 67.2435C44.2174 66.621 44.1219 65.9346 44.1219 65.1845C44.1219 63.5005 44.6352 62.1119 45.6617 61.0185C46.6883 59.9251 47.9496 59.3784 49.4457 59.3784C50.1062 59.3784 50.6791 59.4742 51.1646 59.6657C51.6579 59.8493 52.0399 60.1007 52.3105 60.4199C52.589 60.7392 52.7919 61.0903 52.9192 61.4734C53.0545 61.8485 53.1222 62.2515 53.1222 62.6825C53.1222 63.0815 53.0545 63.4925 52.9192 63.9155ZM49.1592 60.1566C48.6101 60.1566 48.0889 60.4 47.5955 60.8868C47.1101 61.3736 46.7599 62.1119 46.5451 63.1015H50.8423C50.9218 62.7982 50.9616 62.5348 50.9616 62.3114C50.9616 61.6889 50.8184 61.1741 50.5319 60.7671C50.2454 60.3601 49.7879 60.1566 49.1592 60.1566Z" fill="white"/>
<path d="M60.1171 70.6074C59.7271 70.6074 59.373 70.5755 59.0547 70.5116C58.7443 70.4478 58.5016 70.3799 58.3266 70.3081C58.1594 70.2363 57.9326 70.1285 57.6462 69.9849C57.3358 69.9849 56.8782 70.1006 56.2734 70.3321C56.17 70.2682 56.0984 70.1964 56.0586 70.1166C56.0984 69.9889 56.1461 69.5539 56.2018 68.8117C56.2655 68.0695 56.2973 67.4071 56.2973 66.8245C56.4008 66.7766 56.5878 66.7527 56.8583 66.7527C57.0016 67.2156 57.1488 67.6106 57.3 67.9378C57.4592 68.265 57.6581 68.5843 57.8968 68.8955C58.1435 69.1988 58.438 69.4302 58.7802 69.5898C59.1303 69.7415 59.5282 69.8173 59.9738 69.8173C60.6661 69.8173 61.2073 69.6377 61.5972 69.2786C61.9951 68.9195 62.194 68.5124 62.194 68.0575C62.194 67.7144 62.1383 67.4231 62.0269 67.1836C61.9155 66.9442 61.6648 66.6928 61.2749 66.4295C60.8929 66.1581 60.3439 65.8908 59.6277 65.6274C59.182 65.4678 58.804 65.3201 58.4937 65.1845C58.1833 65.0488 57.861 64.8812 57.5268 64.6817C57.2005 64.4821 56.9379 64.2786 56.739 64.0711C56.54 63.8557 56.3769 63.6003 56.2496 63.305C56.1223 63.0097 56.0586 62.6865 56.0586 62.3353C56.0586 62.0799 56.0864 61.8285 56.1421 61.5811C56.2058 61.3257 56.3212 61.0624 56.4883 60.791C56.6634 60.5197 56.8782 60.2843 57.1329 60.0847C57.3955 59.8772 57.7417 59.7096 58.1714 59.5819C58.6091 59.4463 59.1024 59.3784 59.6515 59.3784C59.8743 59.3784 60.0693 59.3904 60.2364 59.4143C60.4115 59.4383 60.6184 59.4822 60.8571 59.546C61.1038 59.6019 61.2391 59.6338 61.263 59.6418C61.438 59.6019 61.6171 59.55 61.8001 59.4862C61.9911 59.4223 62.0985 59.3864 62.1224 59.3784H62.4328C62.6238 60.5277 62.8705 61.5053 63.1728 62.3114C63.0774 62.4151 62.9222 62.467 62.7073 62.467C62.0468 61.6689 61.4818 61.0863 61.0123 60.7192C60.5508 60.3441 60.0255 60.1566 59.4367 60.1566C58.9751 60.1566 58.5693 60.2603 58.2191 60.4678C57.869 60.6753 57.6939 60.9906 57.6939 61.4135C57.6939 61.9483 57.9048 62.3672 58.3266 62.6705C58.7563 62.9738 59.5481 63.3609 60.702 63.8317C61.2351 64.0472 61.6529 64.2268 61.9553 64.3704C62.2657 64.5141 62.576 64.6857 62.8864 64.8852C63.1967 65.0847 63.4235 65.2922 63.5668 65.5077C63.718 65.7152 63.8413 65.9666 63.9368 66.2619C64.0323 66.5572 64.08 66.9003 64.08 67.2914C64.08 68.1373 63.6901 68.9035 62.9102 69.5898C62.1383 70.2682 61.2073 70.6074 60.1171 70.6074Z" fill="white"/>
<path d="M69.6067 57.3433C69.6863 57.3114 69.7778 57.2955 69.8813 57.2955C69.9847 57.2955 70.0921 57.3114 70.2035 57.3433V59.965H73.8204C73.8681 60.0847 73.892 60.2324 73.892 60.408C73.892 60.5596 73.8681 60.6993 73.8204 60.827H70.2035V67.2196C70.2035 68.4805 70.7805 69.111 71.9344 69.111C72.372 69.111 72.7461 69.0272 73.0564 68.8596C73.3747 68.692 73.7249 68.4406 74.1068 68.1054C74.3058 68.1294 74.4371 68.2251 74.5007 68.3927C74.1506 69.0232 73.6333 69.5499 72.949 69.9729C72.2646 70.3959 71.5126 70.6074 70.6929 70.6074C68.7672 70.6074 67.8043 69.4382 67.8043 67.0998V60.827H66.3361C66.3042 60.6833 66.2883 60.5915 66.2883 60.5516C66.2883 60.5436 66.3042 60.4519 66.3361 60.2763C66.718 60.0847 67.0085 59.9291 67.2074 59.8094C67.4143 59.6817 67.673 59.5021 67.9833 59.2707C68.3016 59.0393 68.5881 58.7679 68.8428 58.4567C69.1054 58.1374 69.36 57.7663 69.6067 57.3433Z" fill="white"/>
<path d="M85.1483 63.9155H78.6428C78.6109 64.3944 78.595 64.8173 78.595 65.1845C78.6189 66.3736 78.9651 67.3273 79.6335 68.0456C80.302 68.7559 81.1972 69.111 82.3193 69.111C82.6217 69.111 82.9042 69.0791 83.1668 69.0152C83.4294 68.9434 83.6442 68.8636 83.8113 68.7758C83.9864 68.688 84.1655 68.5603 84.3485 68.3927C84.5315 68.2251 84.6628 68.0934 84.7424 67.9977C84.8299 67.8939 84.9453 67.7423 85.0886 67.5428C85.2318 67.3353 85.3273 67.2036 85.3751 67.1477C85.566 67.1876 85.7212 67.2754 85.8406 67.4111C85.4427 68.4805 84.826 69.2826 83.9904 69.8173C83.1548 70.344 82.2477 70.6074 81.2688 70.6074C80.7834 70.6074 80.3099 70.5435 79.8484 70.4159C79.3948 70.2961 78.9531 70.0966 78.5234 69.8173C78.0937 69.538 77.7197 69.1948 77.4014 68.7878C77.083 68.3728 76.8284 67.858 76.6374 67.2435C76.4464 66.621 76.3509 65.9346 76.3509 65.1845C76.3509 63.5005 76.8642 62.1119 77.8908 61.0185C78.9173 59.9251 80.1786 59.3784 81.6747 59.3784C82.3352 59.3784 82.9081 59.4742 83.3936 59.6657C83.8869 59.8493 84.2689 60.1007 84.5395 60.4199C84.818 60.7392 85.0209 61.0903 85.1483 61.4734C85.2835 61.8485 85.3512 62.2515 85.3512 62.6825C85.3512 63.0815 85.2835 63.4925 85.1483 63.9155ZM81.3882 60.1566C80.8391 60.1566 80.3179 60.4 79.8245 60.8868C79.3391 61.3736 78.9889 62.1119 78.7741 63.1015H83.0713C83.1509 62.7982 83.1906 62.5348 83.1906 62.3114C83.1906 61.6889 83.0474 61.1741 82.7609 60.7671C82.4744 60.3601 82.0169 60.1566 81.3882 60.1566Z" fill="white"/>
<path d="M87.7266 60.408C89.2704 60.2483 90.6153 59.9211 91.7612 59.4263C91.9601 59.5061 92.0994 59.6099 92.179 59.7376V61.7966C92.4734 61.238 92.9111 60.6953 93.492 60.1685C94.0809 59.6418 94.6936 59.3784 95.3302 59.3784C95.8077 59.3784 96.1937 59.5221 96.4881 59.8094C96.7905 60.0887 96.9417 60.4758 96.9417 60.9706C96.9417 61.4415 96.8024 61.8086 96.5239 62.072C96.2454 62.3353 95.8952 62.467 95.4735 62.467C95.0835 62.467 94.7613 62.3433 94.5066 62.0959C94.2599 61.8405 94.1246 61.5053 94.1008 61.0903C93.7665 61.234 93.3846 61.5532 92.9548 62.048C92.5331 62.5428 92.2745 63.0336 92.179 63.5205C92.179 65.3002 92.2108 67.0001 92.2745 68.6202C92.2824 68.8277 92.358 69.0072 92.5013 69.1589C92.6445 69.3025 92.8554 69.4143 93.1339 69.4941C93.4124 69.5739 93.6432 69.6337 93.8262 69.6736C94.0092 69.7056 94.248 69.7375 94.5424 69.7694C94.5902 69.8652 94.614 69.9649 94.614 70.0687C94.614 70.1485 94.5902 70.2363 94.5424 70.3321C93.3488 70.2842 92.167 70.2602 90.9972 70.2602C90.0264 70.2602 89.0157 70.2842 87.9653 70.3321C87.9335 70.2044 87.9176 70.1166 87.9176 70.0687C87.9176 70.0288 87.9335 69.929 87.9653 69.7694C88.2279 69.7375 88.4428 69.7056 88.6099 69.6736C88.777 69.6337 88.9839 69.5739 89.2306 69.4941C89.4773 69.4143 89.6643 69.3025 89.7916 69.1589C89.919 69.0072 89.9866 68.8277 89.9945 68.6202C90.0264 67.8301 90.0423 66.8724 90.0423 65.7471C90.0423 65.372 90.0383 64.7335 90.0303 63.8317C90.0224 62.9299 90.0184 62.1398 90.0184 61.4614C89.5648 61.1821 88.8009 61.0185 87.7266 60.9706C87.6947 60.8429 87.6788 60.7432 87.6788 60.6713C87.6788 60.6234 87.6947 60.5357 87.7266 60.408Z" fill="white"/>
<path d="M103.96 53.0457C105.48 52.902 106.825 52.5748 107.995 52.0641C108.218 52.1598 108.357 52.2676 108.413 52.3873V61.1861C109.646 59.981 110.892 59.3784 112.149 59.3784C113.375 59.3784 114.373 59.8373 115.145 60.7551C115.917 61.6649 116.303 62.898 116.303 64.4542C116.303 65.0368 116.239 65.6114 116.112 66.1781C115.985 66.7367 115.774 67.2874 115.479 67.8301C115.185 68.3648 114.823 68.8357 114.393 69.2427C113.963 69.6497 113.418 69.9809 112.758 70.2363C112.097 70.4837 111.365 70.6074 110.561 70.6074C109.774 70.6074 109.006 70.4757 108.258 70.2123C107.51 69.949 106.845 69.5739 106.264 69.0871C106.28 68.297 106.288 66.3736 106.288 63.317C106.288 62.048 106.284 60.3202 106.276 58.1334C106.268 55.9467 106.264 54.6019 106.264 54.0992C105.819 53.8358 105.051 53.6722 103.96 53.6083C103.929 53.4806 103.913 53.3849 103.913 53.321C103.913 53.2652 103.929 53.1734 103.96 53.0457ZM111.003 60.9467C110.47 60.9467 110.004 61.0464 109.606 61.2459C109.217 61.4375 108.819 61.7288 108.413 62.1198C108.413 64.7056 108.429 66.7966 108.461 68.3927C109.01 69.3424 109.849 69.8173 110.979 69.8173C111.218 69.8173 111.457 69.7774 111.695 69.6976C111.942 69.6178 112.201 69.4661 112.471 69.2427C112.742 69.0192 112.977 68.7359 113.176 68.3927C113.382 68.0496 113.554 67.5867 113.689 67.0041C113.824 66.4215 113.892 65.7591 113.892 65.0169C113.892 64.2507 113.792 63.5683 113.593 62.9698C113.394 62.3712 113.072 61.8844 112.626 61.5093C112.181 61.1342 111.64 60.9467 111.003 60.9467Z" fill="white"/>
<path d="M118.487 59.6418C118.774 59.6578 119.06 59.6737 119.347 59.6897C119.633 59.7057 119.86 59.7176 120.027 59.7256C120.194 59.7336 120.35 59.7376 120.493 59.7376C120.612 59.7376 120.751 59.7336 120.911 59.7256C121.07 59.7176 121.285 59.7057 121.555 59.6897C121.834 59.6737 122.1 59.6578 122.355 59.6418C122.498 59.6897 122.613 59.8134 122.701 60.0129C122.693 60.0768 122.677 60.1725 122.653 60.3002C122.637 60.4199 122.621 60.5676 122.606 60.7431C122.598 60.9107 122.594 61.1182 122.594 61.3657L122.57 67.052C122.57 68.4885 123.003 69.2068 123.871 69.2068C124.675 69.2068 125.816 68.676 127.297 67.6146C127.297 65.2363 127.261 63.1533 127.189 61.3657C127.189 61.222 127.161 61.0943 127.106 60.9826C127.05 60.8708 126.962 60.7751 126.843 60.6953C126.732 60.6155 126.628 60.5516 126.533 60.5037C126.445 60.4479 126.314 60.4 126.139 60.3601C125.964 60.3122 125.84 60.2843 125.769 60.2763C125.697 60.2603 125.578 60.2364 125.411 60.2045C125.379 60.0768 125.363 59.981 125.363 59.9171C125.363 59.8613 125.379 59.7695 125.411 59.6418C125.689 59.6578 125.972 59.6737 126.258 59.6897C126.553 59.7057 126.783 59.7176 126.95 59.7256C127.118 59.7336 127.273 59.7376 127.416 59.7376C127.535 59.7376 127.675 59.7336 127.834 59.7256C127.993 59.7176 128.208 59.7057 128.478 59.6897C128.757 59.6737 129.023 59.6578 129.278 59.6418C129.318 59.6657 129.35 59.6897 129.374 59.7136C129.405 59.7296 129.429 59.7535 129.445 59.7855C129.469 59.8094 129.485 59.8294 129.493 59.8453C129.501 59.8533 129.513 59.8812 129.529 59.9291C129.545 59.969 129.557 59.997 129.565 60.0129C129.501 60.4439 129.469 60.8948 129.469 61.3657C129.421 62.5388 129.397 63.4925 129.397 64.2268C129.397 64.6098 129.405 65.2523 129.421 66.1541C129.437 67.0559 129.445 67.846 129.445 68.5244C129.899 68.7878 130.663 68.9514 131.737 69.0152C131.777 69.2147 131.797 69.3185 131.797 69.3265C131.797 69.3744 131.777 69.4582 131.737 69.5779C130.233 69.7215 128.888 70.0487 127.702 70.5595C127.496 70.4717 127.36 70.364 127.297 70.2363V68.3688C126.501 69.0551 125.749 69.6018 125.041 70.0088C124.34 70.4079 123.632 70.6074 122.916 70.6074C122.009 70.6074 121.364 70.352 120.982 69.8412C120.608 69.3305 120.413 68.5284 120.397 67.435L120.302 61.3657C120.286 61.1821 120.25 61.0464 120.194 60.9586C120.147 60.8629 120.063 60.7751 119.944 60.6953C119.832 60.6155 119.729 60.5516 119.633 60.5037C119.538 60.4479 119.403 60.4 119.227 60.3601C119.052 60.3122 118.929 60.2843 118.857 60.2763C118.786 60.2603 118.662 60.2364 118.487 60.2045C118.456 60.0768 118.44 59.981 118.44 59.9171C118.44 59.8613 118.456 59.7695 118.487 59.6418Z" fill="white"/>
<path d="M133.444 53.0457C134.956 52.902 136.297 52.5748 137.467 52.0641C137.682 52.1518 137.821 52.2596 137.884 52.3873C137.884 61.4295 137.916 66.8405 137.98 68.6202C137.988 68.7878 138.036 68.9394 138.123 69.0751C138.219 69.2028 138.322 69.3065 138.434 69.3863C138.545 69.4582 138.696 69.526 138.887 69.5898C139.078 69.6457 139.225 69.6856 139.329 69.7096C139.44 69.7255 139.587 69.7455 139.77 69.7694C139.818 69.8652 139.842 69.9649 139.842 70.0687C139.842 70.1724 139.818 70.2602 139.77 70.3321C138.72 70.2842 137.701 70.2602 136.715 70.2602C135.744 70.2602 134.733 70.2842 133.683 70.3321C133.651 70.2044 133.635 70.1166 133.635 70.0687C133.635 70.0288 133.651 69.929 133.683 69.7694C133.945 69.7375 134.156 69.7056 134.315 69.6736C134.483 69.6337 134.689 69.5739 134.936 69.4941C135.191 69.4143 135.382 69.3025 135.509 69.1589C135.636 69.0072 135.704 68.8277 135.712 68.6202C135.744 67.8301 135.76 66.0623 135.76 63.317C135.76 62.048 135.756 60.3202 135.748 58.1334C135.74 55.9467 135.736 54.6019 135.736 54.0992C135.282 53.8358 134.518 53.6722 133.444 53.6083C133.404 53.5046 133.384 53.4088 133.384 53.321C133.384 53.2412 133.404 53.1494 133.444 53.0457Z" fill="white"/>
<path d="M147.577 53.0457C149.081 52.902 150.426 52.5748 151.612 52.0641C151.819 52.1518 151.954 52.2596 152.017 52.3873C152.017 61.4295 152.053 66.8405 152.125 68.6202C152.133 68.8277 152.193 69.0072 152.304 69.1589C152.423 69.3025 152.59 69.4143 152.805 69.4941C153.02 69.5739 153.199 69.6337 153.342 69.6736C153.486 69.7056 153.673 69.7375 153.903 69.7694C153.935 69.8971 153.951 69.9969 153.951 70.0687C153.951 70.1166 153.935 70.2044 153.903 70.3321C153.625 70.3161 153.338 70.3001 153.044 70.2842C152.758 70.2682 152.531 70.2562 152.364 70.2483C152.197 70.2403 152.041 70.2363 151.898 70.2363C151.779 70.2363 151.643 70.2403 151.492 70.2483C151.341 70.2562 151.134 70.2682 150.872 70.2842C150.609 70.3001 150.35 70.3161 150.096 70.3321C150.056 70.3161 150.02 70.2961 149.988 70.2722C149.964 70.2562 149.944 70.2443 149.929 70.2363C149.921 70.2203 149.909 70.2004 149.893 70.1764C149.877 70.1445 149.865 70.1246 149.857 70.1166C149.849 70.1086 149.837 70.0847 149.821 70.0447C149.813 69.9969 149.805 69.9689 149.797 69.961C149.829 69.7694 149.845 69.3385 149.845 68.6681C148.532 69.961 147.318 70.6074 146.204 70.6074C144.979 70.6074 143.98 70.1445 143.208 69.2187C142.436 68.293 142.05 67.032 142.05 65.4359C142.05 64.8852 142.114 64.3345 142.241 63.7838C142.369 63.2332 142.58 62.6905 142.874 62.1558C143.168 61.621 143.531 61.1502 143.96 60.7431C144.39 60.3361 144.935 60.0089 145.596 59.7615C146.256 59.5061 146.988 59.3784 147.792 59.3784C148.389 59.3784 149.089 59.5061 149.893 59.7615C149.877 58.2452 149.869 56.3577 149.869 54.0992C149.415 53.8358 148.651 53.6722 147.577 53.6083C147.545 53.4806 147.529 53.3849 147.529 53.321C147.529 53.2652 147.545 53.1734 147.577 53.0457ZM147.35 69.0392C148.146 69.0392 148.986 68.6122 149.869 67.7583C149.885 66.9761 149.893 65.4957 149.893 63.317V61.5811C149.344 60.6314 148.504 60.1566 147.374 60.1566C147.135 60.1566 146.897 60.1925 146.658 60.2643C146.419 60.3361 146.165 60.4798 145.894 60.6953C145.623 60.9108 145.385 61.1861 145.178 61.5213C144.979 61.8565 144.812 62.3233 144.676 62.9219C144.541 63.5125 144.474 64.1948 144.474 64.969C144.474 66.1501 144.716 67.1238 145.202 67.8899C145.695 68.6561 146.411 69.0392 147.35 69.0392Z" fill="white"/>
<path d="M155.718 60.408C157.262 60.2483 158.607 59.9211 159.752 59.4263C159.951 59.5061 160.091 59.6099 160.17 59.7376C160.17 63.8796 160.202 66.8405 160.266 68.6202C160.274 68.8277 160.333 69.0072 160.445 69.1589C160.564 69.3025 160.731 69.4143 160.946 69.4941C161.161 69.5739 161.34 69.6337 161.483 69.6736C161.627 69.7056 161.814 69.7375 162.044 69.7694C162.092 69.8652 162.116 69.9649 162.116 70.0687C162.116 70.1724 162.092 70.2602 162.044 70.3321C160.994 70.2842 159.975 70.2602 158.989 70.2602C158.018 70.2602 157.007 70.2842 155.957 70.3321C155.925 70.2044 155.909 70.1166 155.909 70.0687C155.909 70.0288 155.925 69.929 155.957 69.7694C156.219 69.7375 156.434 69.7056 156.601 69.6736C156.768 69.6337 156.975 69.5739 157.222 69.4941C157.469 69.4143 157.656 69.3025 157.783 69.1589C157.91 69.0072 157.978 68.8277 157.986 68.6202C158.018 67.8301 158.034 66.8724 158.034 65.7471C158.034 65.372 158.03 64.7335 158.022 63.8317C158.014 62.9299 158.01 62.1398 158.01 61.4614C157.556 61.1821 156.792 61.0185 155.718 60.9706C155.686 60.8429 155.67 60.7432 155.67 60.6713C155.67 60.6234 155.686 60.5357 155.718 60.408ZM157.592 55.404C157.592 54.997 157.735 54.6498 158.022 54.3625C158.316 54.0752 158.662 53.9316 159.06 53.9316C159.466 53.9316 159.812 54.0752 160.099 54.3625C160.385 54.6498 160.528 54.997 160.528 55.404C160.528 55.8031 160.385 56.1502 160.099 56.4455C159.812 56.7328 159.466 56.8765 159.06 56.8765C158.662 56.8765 158.316 56.7328 158.022 56.4455C157.735 56.1502 157.592 55.8031 157.592 55.404Z" fill="white"/>
<path d="M170.09 69.7694C170.137 69.8652 170.161 69.9649 170.161 70.0687C170.161 70.1485 170.137 70.2363 170.09 70.3321C169.039 70.2842 168.021 70.2602 167.034 70.2602C166.063 70.2602 165.052 70.2842 164.002 70.3321C163.97 70.2044 163.954 70.1166 163.954 70.0687C163.954 70.0288 163.97 69.929 164.002 69.7694C164.265 69.7375 164.479 69.7056 164.646 69.6736C164.814 69.6337 165.021 69.5739 165.267 69.4941C165.514 69.4143 165.701 69.3025 165.828 69.1589C165.956 69.0072 166.023 68.8277 166.031 68.6202C166.063 67.8301 166.079 66.8724 166.079 65.7471C166.079 65.372 166.075 64.7335 166.067 63.8317C166.059 62.9299 166.055 62.1398 166.055 61.4614C165.601 61.1821 164.837 61.0185 163.763 60.9706C163.731 60.8429 163.715 60.7432 163.715 60.6713C163.715 60.6234 163.731 60.5357 163.763 60.408C165.307 60.2483 166.652 59.9211 167.798 59.4263C167.997 59.5061 168.136 59.6099 168.216 59.7376V61.629C168.987 60.9507 169.728 60.408 170.436 60.0009C171.144 59.5859 171.86 59.3784 172.584 59.3784C173.492 59.3784 174.132 59.6338 174.506 60.1446C174.888 60.6554 175.087 61.4534 175.103 62.5388L175.222 68.6202C175.23 68.8277 175.29 69.0072 175.401 69.1589C175.521 69.3025 175.688 69.4143 175.903 69.4941C176.126 69.5739 176.309 69.6337 176.452 69.6736C176.595 69.7056 176.782 69.7375 177.013 69.7694C177.045 69.929 177.061 70.0368 177.061 70.0926C177.061 70.1565 177.045 70.2363 177.013 70.3321C175.986 70.2842 175.039 70.2602 174.172 70.2602C173.328 70.2602 172.393 70.2842 171.367 70.3321C171.335 70.2044 171.319 70.1086 171.319 70.0447C171.319 69.9889 171.335 69.8971 171.367 69.7694C171.574 69.7375 171.745 69.7056 171.88 69.6736C172.023 69.6337 172.183 69.5739 172.358 69.4941C172.541 69.4143 172.676 69.3025 172.763 69.1589C172.859 69.0072 172.907 68.8277 172.907 68.6202L172.931 62.9339C172.931 61.4894 172.497 60.7671 171.629 60.7671C170.818 60.7671 169.68 61.3098 168.216 62.3952C168.216 64.7176 168.247 66.7926 168.311 68.6202C168.319 68.8277 168.379 69.0072 168.49 69.1589C168.609 69.3025 168.777 69.4143 168.991 69.4941C169.206 69.5739 169.385 69.6337 169.529 69.6736C169.672 69.7056 169.859 69.7375 170.09 69.7694Z" fill="white"/>
<path d="M187.756 63.1254C187.756 64.3864 187.35 65.3959 186.538 66.1541C185.727 66.9123 184.74 67.2914 183.578 67.2914C183.029 67.2914 182.516 67.2515 182.038 67.1717C181.561 67.4749 181.322 67.85 181.322 68.297C181.322 68.6561 181.545 68.9195 181.99 69.0871C182.444 69.2467 183.216 69.3265 184.306 69.3265C184.481 69.3265 184.812 69.3185 185.297 69.3025C185.782 69.2866 186.168 69.2786 186.455 69.2786C188.675 69.2786 189.785 70.1924 189.785 72.02C189.785 72.5387 189.63 73.0854 189.32 73.66C189.017 74.2347 188.599 74.7694 188.066 75.2642C187.541 75.767 186.877 76.182 186.073 76.5092C185.277 76.8364 184.438 77 183.554 77C182.162 77 181.107 76.7406 180.391 76.2219C179.675 75.7111 179.317 75.0726 179.317 74.3065C179.317 73.7718 179.512 73.2371 179.902 72.7023C180.299 72.1676 180.888 71.6888 181.668 71.2658C180.132 71.0424 179.364 70.4438 179.364 69.4701C179.364 69.0072 179.536 68.5723 179.878 68.1653C180.228 67.7503 180.701 67.3193 181.298 66.8724C180.486 66.4175 179.925 65.8947 179.615 65.3042C179.305 64.7136 179.15 64.0432 179.15 63.293C179.15 62.8301 179.257 62.3672 179.472 61.9044C179.695 61.4335 179.993 61.0145 180.367 60.6474C180.741 60.2723 181.199 59.969 181.74 59.7376C182.289 59.4981 182.866 59.3784 183.471 59.3784C184.028 59.3784 184.485 59.4223 184.843 59.5101C185.201 59.5899 185.647 59.7336 186.18 59.9411C186.713 60.1486 187.215 60.3202 187.684 60.4558C187.724 60.1446 187.847 59.8812 188.054 59.6657C188.261 59.4423 188.528 59.3306 188.854 59.3306C189.148 59.3306 189.411 59.4543 189.642 59.7017C189.881 59.9491 190 60.2324 190 60.5516C190 60.8788 189.897 61.1621 189.69 61.4016C189.491 61.633 189.236 61.7487 188.926 61.7487C188.743 61.7487 188.56 61.7168 188.377 61.653C188.194 61.5891 188.042 61.5253 187.923 61.4614C187.812 61.3896 187.644 61.2779 187.422 61.1262C187.199 60.9666 187.024 60.8469 186.896 60.7671L186.849 60.827C187.143 61.0903 187.366 61.4295 187.517 61.8445C187.676 62.2515 187.756 62.6785 187.756 63.1254ZM181.525 73.4446C181.525 73.7638 181.573 74.0671 181.668 74.3544C181.764 74.6417 181.915 74.913 182.122 75.1684C182.329 75.4238 182.619 75.6233 182.993 75.767C183.375 75.9186 183.821 75.9944 184.33 75.9944C184.983 75.9944 185.56 75.8907 186.061 75.6832C186.57 75.4837 186.956 75.2323 187.219 74.929C187.481 74.6257 187.676 74.3304 187.804 74.0431C187.931 73.7638 187.995 73.5084 187.995 73.277C187.995 72.9577 187.967 72.6864 187.911 72.4629C187.855 72.2474 187.748 72.036 187.589 71.8285C187.438 71.6289 187.199 71.4773 186.873 71.3736C186.546 71.2698 186.133 71.2179 185.631 71.2179C185.361 71.2179 184.855 71.2339 184.115 71.2658C183.375 71.2977 182.902 71.3137 182.695 71.3137C182.329 71.5691 182.042 71.8843 181.835 72.2594C181.628 72.6345 181.525 73.0296 181.525 73.4446ZM181.573 63.317C181.573 65.4478 182.205 66.5133 183.471 66.5133C184.075 66.5133 184.537 66.2499 184.855 65.7232C185.174 65.1964 185.333 64.3225 185.333 63.1015C185.333 62.5428 185.269 62.06 185.142 61.653C185.014 61.238 184.847 60.9307 184.64 60.7312C184.441 60.5237 184.239 60.376 184.032 60.2882C183.833 60.2005 183.63 60.1566 183.423 60.1566C182.89 60.1566 182.448 60.408 182.098 60.9107C181.748 61.4135 181.573 62.2156 181.573 63.317Z" fill="white"/>
<path d="M175.341 40.8399H172.923V15.1133L151.363 2.58279L129.804 15.1133V40.8399H127.386V14.3898C127.386 13.9557 127.616 13.5506 127.99 13.348L150.759 0.151929C151.133 -0.0506429 151.594 -0.0506429 151.968 0.151929L174.737 13.377C175.111 13.5795 175.341 13.9847 175.341 14.4188V40.8399Z" fill="white"/>
<path d="M159.394 40.8399H156.976V25.0104H145.75V40.8109H143.332V23.8239C143.332 23.1583 143.879 22.6084 144.541 22.6084H158.185C158.847 22.6084 159.394 23.1583 159.394 23.8239V40.8399Z" fill="white"/>
<path d="M151.968 9.09402C151.594 8.89145 151.133 8.89145 150.759 9.09402L114.49 30.1325V32.9396L151.363 11.5249L188.237 32.9396V30.1325L151.968 9.09402Z" fill="white"/>
<path d="M37.1231 40.886L129.973 40.8399V43.7002H37.4843L37.1231 40.886Z" fill="white"/>
</svg>
