<svg width="521" height="324" viewBox="0 0 521 324" fill="none" xmlns="http://www.w3.org/2000/svg">
<path d="M444.723 68.5589C343.02 10.1692 178.093 10.1692 76.2771 68.5589C-25.4257 126.949 -25.4257 221.733 76.2771 280.123C177.98 338.512 342.907 338.512 444.723 280.123C546.426 221.733 546.426 126.949 444.723 68.5589Z" fill="#F5F5F5"/>
<path d="M411.011 157.334C429.172 167.765 429.172 184.772 411.011 195.203C392.85 205.633 363.452 205.633 345.29 195.203C327.129 184.772 327.129 167.765 345.29 157.334C363.452 146.904 392.85 146.904 411.011 157.334Z" fill="#E0E0E0"/>
<path d="M322.702 223.207C304.087 221.506 288.309 222.64 275.823 225.248C274.121 213.456 264.473 201.778 246.652 192.821C207.492 172.867 143.927 172.867 104.654 192.821C65.4937 212.776 65.4937 245.202 104.654 265.157C143.814 285.111 207.378 285.111 246.652 265.157C251.079 262.889 254.938 260.508 258.457 258.014C271.056 260.848 285.017 262.322 297.617 261.982C298.071 262.095 298.525 262.322 298.979 262.436C310.103 265.95 322.021 267.764 332.01 267.764C340.636 267.764 347.901 266.404 351.987 263.569C352.441 263.229 352.895 262.889 353.235 262.662C358.57 262.776 364.473 263.002 370.602 261.869C379.456 260.055 383.883 256.2 383.655 251.551C382.747 239.76 348.582 225.588 322.702 223.207ZM297.957 258.127C290.352 255.293 286.266 251.551 286.72 247.47C287.288 242.141 295.12 237.379 304.541 236.585C305.789 236.472 307.151 236.472 308.513 236.472C315.778 236.472 323.156 238.059 327.81 240.213C325.653 240.213 323.61 240.554 321.68 241.234C318.843 242.141 317.594 244.408 318.275 247.13C318.843 249.17 320.545 251.325 323.156 253.365C316.686 256.427 307.719 257.9 297.957 258.127ZM328.491 244.068C329.853 244.068 331.215 244.182 332.577 244.408C332.577 244.522 332.691 244.635 332.691 244.749C333.258 246.676 331.215 249.17 326.902 251.665C323.951 249.737 322.248 247.81 321.794 246.336C321.68 245.882 321.567 245.429 322.815 244.975C324.632 244.295 326.448 244.068 328.491 244.068ZM308.173 261.188C315.097 260.281 321.226 258.694 326.107 256.313C326.334 256.2 326.448 256.086 326.675 255.973C331.556 258.807 338.252 261.188 346.425 262.209C338.252 265.043 323.156 264.703 308.173 261.188ZM351.419 258.921C342.679 258.467 335.642 256.2 330.534 253.705C334.62 250.984 336.55 248.15 336.436 245.202C340.636 246.336 344.609 248.263 347.447 250.531C350.398 252.798 352.1 255.293 351.987 257.22C351.987 257.787 351.76 258.354 351.419 258.921ZM369.581 258.241C364.586 259.261 359.819 259.034 355.392 259.034C355.506 258.467 355.619 258.014 355.619 257.56C355.846 254.272 353.69 250.758 349.717 247.696C345.857 244.749 340.409 242.254 334.847 241.12C329.853 234.885 314.643 232.277 304.2 233.071C292.963 233.978 283.882 240.1 283.088 247.13C282.747 249.851 283.542 254.159 289.558 258.127C280.477 257.787 270.942 256.653 262.202 254.839C271.396 246.903 276.05 237.833 276.05 228.876C288.309 226.268 303.86 225.134 322.361 226.835C349.49 229.329 379.229 243.501 379.683 251.551C379.796 254.159 376.164 256.88 369.581 258.241Z" fill="#E0E0E0"/>
<path d="M370.83 172.187C369.695 159.375 370.603 145.996 373.213 132.504C376.278 116.858 385.245 104.16 396.028 98.1508C399.774 96.11 407.606 93.8424 412.714 98.4909C417.595 102.913 414.984 109.942 409.082 117.198C397.39 131.484 385.813 143.502 382.634 162.209L381.272 176.155L370.83 172.187Z" fill="#AD856D"/>
<path opacity="0.2" d="M370.83 172.187C369.695 159.375 370.603 145.996 373.213 132.504C376.278 116.858 385.245 104.16 396.028 98.1508C399.774 96.11 407.606 93.8424 412.714 98.4909C417.595 102.913 414.984 109.942 409.082 117.198C397.39 131.484 385.813 143.502 382.634 162.209L381.272 176.155L370.83 172.187Z" fill="black"/>
<path d="M374.462 170.373C374.122 170.373 373.895 170.146 373.895 169.806C373.895 151.665 377.754 135.906 385.699 121.733C390.921 112.323 397.277 105.52 405.223 100.985C405.45 100.872 405.904 100.872 406.017 101.212C406.131 101.439 406.131 101.892 405.79 102.006C398.072 106.541 391.829 113.23 386.721 122.3C378.889 136.246 375.143 151.779 375.143 169.806C375.03 170.146 374.803 170.373 374.462 170.373Z" fill="white"/>
<path d="M387.288 178.649C387.288 174.227 390.24 165.951 396.71 158.014C403.86 149.171 414.417 142.935 415.552 137.38C417.027 130.69 410.784 127.402 401.704 130.577C390.694 134.432 379.91 149.511 381.159 176.155L387.288 178.649Z" fill="#AD856D"/>
<path d="M384.564 174.681C384.791 174.568 384.905 174.454 384.905 174.227C386.267 150.645 399.888 138.513 407.152 135.339C407.379 135.225 407.606 134.885 407.493 134.658C407.379 134.432 407.039 134.205 406.812 134.318C398.753 137.833 385.245 150.078 383.883 174.227C383.883 174.568 384.11 174.794 384.451 174.794C384.451 174.794 384.564 174.794 384.564 174.681Z" fill="white"/>
<path d="M330.648 262.209C320.659 262.209 308.854 260.395 297.617 256.88C297.163 256.767 296.709 256.54 296.255 256.427C277.64 256.994 256.073 253.365 240.409 247.583L241.658 244.068C254.598 248.83 271.964 252.118 288.196 252.572C282.18 248.604 281.385 244.182 281.726 241.574C282.521 234.431 291.601 228.422 302.838 227.515C313.281 226.608 328.491 229.329 333.485 235.565C339.047 236.699 344.609 239.193 348.355 242.141C352.441 245.316 354.484 248.717 354.257 252.005C354.257 252.458 354.144 253.025 354.03 253.479C358.457 253.479 363.111 253.706 368.219 252.685C374.689 251.325 378.434 248.604 378.207 246.223C377.753 238.173 348.014 224 320.886 221.506C284.677 218.218 259.592 225.928 249.036 233.524L246.879 230.576C257.889 222.527 283.996 214.363 321.227 217.878C347.22 220.259 381.272 234.431 381.953 246.109C382.18 250.758 377.867 254.613 368.9 256.427C362.77 257.674 356.982 257.447 351.533 257.22C351.193 257.56 350.739 257.901 350.285 258.127C346.425 260.848 339.274 262.209 330.648 262.209ZM306.925 255.52C321.908 259.034 337.004 259.488 345.177 256.54C337.118 255.52 330.307 253.139 325.426 250.304C325.199 250.418 325.086 250.531 324.859 250.644C320.092 253.139 313.849 254.726 306.925 255.52ZM329.286 248.15C334.394 250.644 341.431 252.912 350.171 253.365C350.512 252.799 350.739 252.345 350.739 251.665C350.852 249.737 349.263 247.243 346.198 244.975C343.361 242.821 339.388 240.894 335.188 239.647C335.302 242.594 333.372 245.429 329.286 248.15ZM307.265 231.03C305.903 231.03 304.655 231.03 303.292 231.143C293.871 231.937 286.153 236.699 285.472 242.028C285.018 245.996 289.104 249.851 296.709 252.685C306.471 252.345 315.324 250.871 321.908 248.037C319.297 245.996 317.594 243.728 317.027 241.801C316.346 239.193 317.594 236.926 320.432 235.905C322.362 235.225 324.405 234.885 326.561 234.885C321.908 232.504 314.416 231.03 307.265 231.03ZM327.243 238.513C325.199 238.513 323.383 238.74 321.681 239.307C320.432 239.76 320.546 240.214 320.659 240.667C321 242.141 322.816 244.068 325.767 245.996C329.967 243.501 332.123 241.007 331.556 239.08C331.556 238.966 331.442 238.853 331.442 238.74C329.967 238.626 328.605 238.513 327.243 238.513Z" fill="#455A64"/>
<path d="M341.317 257.674C343.701 258.241 346.993 258.808 349.036 259.034C349.603 258.694 350.171 258.467 350.625 258.127C351.079 257.787 351.533 257.447 351.874 257.22C351.874 257.22 348.241 256.993 345.29 256.653C344.042 256.993 342.679 257.334 341.317 257.674Z" fill="#37474F"/>
<path d="M322.816 251.665C323.61 251.325 324.291 250.985 324.972 250.644C325.199 250.531 325.313 250.418 325.54 250.304C325.54 250.304 324.064 249.511 322.021 247.923C321.113 248.263 320.205 248.717 319.297 249.057C320.318 250.191 321.681 251.098 322.816 251.665Z" fill="#37474F"/>
<path d="M331.442 239.08C331.669 239.76 331.556 240.44 331.215 241.121C332.691 241.347 334.053 241.688 334.848 242.028C335.188 241.234 335.302 240.44 335.302 239.647C335.302 239.647 333.485 238.967 331.329 238.74C331.442 238.967 331.442 239.08 331.442 239.08Z" fill="#37474F"/>
<path d="M283.769 252.345C285.472 254.046 287.742 255.406 289.444 256.313C291.715 256.313 293.985 256.313 296.255 256.313C296.255 256.313 291.034 254.273 288.309 252.572C286.834 252.572 285.245 252.459 283.769 252.345Z" fill="#37474F"/>
<path d="M246.993 230.463L249.149 233.411C253.349 230.35 259.706 227.402 268.219 225.021C268.673 223.661 269.013 222.3 269.127 220.939C259.252 223.547 251.76 226.948 246.993 230.463Z" fill="#37474F"/>
<path d="M252.895 247.47C248.922 246.449 245.176 245.316 241.658 243.955L240.409 247.47C243.247 248.49 246.198 249.511 249.263 250.304C250.511 249.511 251.76 248.49 252.895 247.47Z" fill="#37474F"/>
<path d="M181.045 90.554C166.856 89.9871 153.576 79.5563 140.636 69.4657C129.626 60.8489 119.183 52.6857 110.216 52.6857C109.194 52.6857 108.4 51.8921 108.4 50.8717C108.4 49.8513 109.194 49.0576 110.216 49.0576C120.432 49.0576 131.328 57.561 142.906 66.6312C155.392 76.3818 168.218 86.4724 181.158 86.9259C182.18 86.9259 182.974 87.8329 182.974 88.8533C182.861 89.7604 182.066 90.554 181.045 90.554Z" fill="#455A64"/>
<path d="M89.4441 171.846C79.4554 168.105 70.8289 154.386 74.5746 139.193C79.1149 120.826 99.3193 107.788 110.33 97.13C130.988 77.2889 143.587 61.4159 137.004 32.958C131.215 8.01481 108.059 -0.375178 94.3249 0.191712C77.2988 0.871981 66.5156 7.90142 67.5371 13.457C67.9912 15.9513 72.645 16.9717 76.2772 18.3322C87.628 22.5272 91.1467 25.0215 94.779 29.8968C100.341 37.3797 101.249 47.0169 100 47.6972C98.7517 48.3774 97.2761 42.8219 89.6711 39.5339C82.0661 36.3593 78.4339 38.6269 78.5474 40.3276C78.6609 42.1416 85.5849 43.6156 87.628 53.5928C89.3306 61.8694 88.9901 72.6404 76.5042 89.6471C68.7857 100.191 51.3056 119.919 55.1648 144.976C59.0241 170.146 78.0934 179.329 86.0389 179.783L89.4441 171.846Z" fill="#AD856D"/>
<path opacity="0.05" d="M89.4441 171.846C79.4554 168.105 70.8289 154.386 74.5746 139.193C79.1149 120.826 99.3193 107.788 110.33 97.13C130.988 77.2889 143.587 61.4159 137.004 32.958C131.215 8.01481 108.059 -0.375178 94.3249 0.191712C77.2988 0.871981 66.5156 7.90142 67.5371 13.457C67.9912 15.9513 72.645 16.9717 76.2772 18.3322C87.628 22.5272 91.1467 25.0215 94.779 29.8968C100.341 37.3797 101.249 47.0169 100 47.6972C98.7517 48.3774 97.2761 42.8219 89.6711 39.5339C82.0661 36.3593 78.4339 38.6269 78.5474 40.3276C78.6609 42.1416 85.5849 43.6156 87.628 53.5928C89.3306 61.8694 88.9901 72.6404 76.5042 89.6471C68.7857 100.191 51.3056 119.919 55.1648 144.976C59.0241 170.146 78.0934 179.329 86.0389 179.783L89.4441 171.846Z" fill="black"/>
<path opacity="0.15" d="M85.9255 179.669L89.4443 171.846C86.7201 170.826 84.1094 169.012 81.7258 166.744C80.2502 170.145 79.0016 173.66 78.207 177.628C81.2717 178.876 83.9959 179.556 85.9255 179.669Z" fill="black"/>
<path d="M118.615 29.33C120.205 28.3096 119.637 25.9287 118.842 24.3414C116.799 19.9196 114.302 16.2915 110.783 12.8902C113.281 13.3437 115.664 14.2507 118.161 14.931C121.68 15.9514 123.95 17.5387 124.404 16.2915C124.631 15.7246 124.518 14.2507 124.291 13.3437C123.723 10.9628 123.042 10.0557 122.248 9.37548C113.281 2.34603 102.27 -0.26166 94.3248 0.0784741C77.2986 0.758743 66.5154 7.78819 67.537 13.3437C67.991 15.838 72.6448 16.8584 76.2771 18.219C87.6278 22.414 91.1466 24.9083 94.7788 29.7836C94.7788 29.8969 98.8651 31.8244 100.681 32.9581C101.476 33.525 102.497 34.0919 103.405 34.0919C103.859 34.0919 104.313 34.0919 104.654 33.7518C105.903 32.9581 105.676 31.0307 105.222 29.5568C104.313 26.7223 103.178 24.0013 101.816 21.3936C106.243 22.414 110.329 24.5682 113.621 27.516C115.097 28.8765 117.026 30.3504 118.615 29.33Z" fill="#455A64"/>
<path d="M173.894 165.27C175.369 184.998 181.839 197.243 195.233 208.581C208.74 219.919 227.81 226.721 236.209 230.463C244.609 234.204 250.965 238.626 257.095 233.411C263.224 228.195 262.657 217.084 273.553 208.127C284.45 199.284 288.196 196.79 288.423 190.327C288.763 181.824 280.591 182.05 278.094 183.298C278.094 183.298 275.937 179.669 269.921 181.03C264.813 182.164 262.43 186.472 262.43 186.472C262.43 186.472 258.684 186.245 254.711 189.987C251.192 193.275 244.268 202.118 244.268 202.118C244.268 202.118 251.646 190.554 248.355 178.309C245.403 167.198 238.366 164.137 238.366 164.137C238.366 164.137 241.431 162.549 249.603 164.023C249.603 164.023 246.084 154.499 231.215 150.871C216.345 147.243 206.357 157.901 206.357 157.901L173.894 165.27Z" fill="#AD856D"/>
<path opacity="0.15" d="M265.154 183.411C263.338 184.885 262.43 186.472 262.43 186.472C264.7 186.359 269.467 186.699 271.17 192.481C271.17 192.481 272.986 186.019 265.154 183.411Z" fill="black"/>
<path opacity="0.15" d="M279.569 190.1C279.569 190.1 282.634 188.399 280.818 182.73C279.683 182.844 278.775 183.071 278.094 183.411C279.91 185.225 280.137 188.513 279.569 190.1Z" fill="black"/>
<path d="M269.921 201.098C262.543 202.912 256.414 207.674 253.008 215.837C249.603 223.887 250.852 229.329 254.144 230.123C257.435 230.917 259.024 230.463 261.862 226.155C264.246 220.713 266.516 214.023 273.553 208.241C275.596 206.54 277.413 205.066 279.002 203.706C278.775 201.325 275.596 199.738 269.921 201.098Z" fill="#F28F8F"/>
<path d="M268.218 193.388C266.062 192.481 263.678 197.696 266.289 198.717C268.332 199.624 271.17 194.635 268.218 193.388Z" fill="#FFA8A7"/>
<path d="M276.845 191.574C274.689 190.667 272.305 195.883 274.916 196.903C277.072 197.81 279.91 192.821 276.845 191.574Z" fill="#F28F8F"/>
<path d="M283.996 191.461C281.84 190.554 279.456 195.769 282.067 196.79C284.223 197.583 287.061 192.595 283.996 191.461Z" fill="#F28F8F"/>
<path d="M150.511 114.591C149.376 120.826 125.653 126.836 109.421 139.08C93.1899 151.325 78.7744 168.105 81.3851 197.017C84.2228 228.762 112.827 240.44 127.923 240.44C143.02 240.44 194.552 236.472 220.886 198.944C247.106 161.643 211.692 112.21 150.511 114.591Z" fill="#AD856D"/>
<path opacity="0.15" d="M113.394 188.06C113.394 188.06 121.567 173.661 144.155 177.629C166.743 181.597 164.699 216.517 164.699 216.517C164.699 216.517 164.927 236.019 150.511 233.978C136.096 231.824 113.394 188.06 113.394 188.06Z" fill="black"/>
<path opacity="0.15" d="M150.511 114.59C150.398 115.271 150.057 115.838 149.49 116.518C148.582 128.082 152.101 143.048 165.381 147.243C179.796 151.778 196.142 149.171 207.038 145.316C210.216 144.182 213.849 142.595 217.481 140.667C204.087 124.681 180.364 113.457 150.511 114.59Z" fill="black"/>
<path d="M159.592 196.903C159.478 196.903 159.365 196.903 159.251 196.903C109.308 186.246 90.9198 154.726 84.3364 136.926C75.8233 113.797 75.0288 88.4002 82.5203 73.7744C82.9743 72.8674 84.1094 72.5273 85.0174 72.9808C85.9255 73.4343 86.266 74.5681 85.812 75.4751C78.888 89.1939 79.6826 113.457 87.8551 135.679C94.098 152.799 111.919 182.958 160.046 193.388C161.068 193.615 161.635 194.636 161.522 195.543C161.295 196.336 160.5 196.903 159.592 196.903Z" fill="#455A64"/>
<path d="M270.262 184.545C276.05 217.765 254.371 249.284 221.907 254.839C189.444 260.395 158.457 238.059 152.781 204.839C147.9 176.835 163.11 153.593 187.401 143.615C191.941 141.688 196.822 140.327 201.93 139.42C204.541 138.967 207.151 138.627 209.762 138.513C239.047 136.699 264.927 154.046 270.262 184.545Z" fill="#455A64"/>
<mask id="mask0_550_467" style="mask-type:luminance" maskUnits="userSpaceOnUse" x="151" y="138" width="121" height="118">
<path d="M270.262 184.545C276.05 217.765 254.371 249.284 221.907 254.839C189.444 260.395 158.457 238.059 152.781 204.839C147.9 176.835 163.11 153.593 187.401 143.615C191.941 141.688 196.822 140.327 201.93 139.42C204.541 138.967 207.151 138.627 209.762 138.513C239.047 136.699 264.927 154.046 270.262 184.545Z" fill="white"/>
</mask>
<g mask="url(#mask0_550_467)">
<path opacity="0.15" d="M308.627 194.069C294.212 198.831 279.569 201.325 265.154 200.985C267.991 199.964 270.716 198.49 273.78 196.903C280.137 193.502 288.082 189.647 289.898 182.164C290.239 180.803 288.536 181.03 287.855 181.597C282.861 185.679 276.845 190.894 270.375 194.862C263.111 199.284 254.371 200.531 246.084 198.717C244.382 198.377 242.679 197.924 240.977 197.47C247.22 196.336 253.689 193.615 257.776 191.234C269.808 184.318 276.05 174.681 278.207 161.189C278.434 159.715 276.845 159.148 275.937 160.169C274.121 161.983 273.78 164.023 272.872 166.518C270.148 174.454 266.289 179.103 259.592 183.978C254.938 187.379 249.376 189.987 243.701 191.461C240.75 192.141 237.798 192.368 234.847 192.822C232.01 193.275 228.604 193.162 225.88 191.914C223.723 190.894 221.567 189.647 219.41 188.4C232.123 187.606 246.311 176.382 254.484 168.785C263.111 160.735 269.354 150.645 267.991 138.627C267.764 136.473 265.267 137.72 265.04 139.194C263.905 144.749 263.451 148.491 260.84 153.819C258.23 159.262 254.598 163.23 250.057 167.198C240.636 175.361 227.696 184.091 214.983 185.225C213.167 183.865 211.465 182.504 209.762 181.03C219.297 177.515 227.469 170.373 234.166 162.663C238.139 158.014 241.317 153.139 243.36 147.357C244.609 143.729 247.56 137.833 245.971 133.978C245.29 132.164 243.02 133.865 242.906 135.112C241.998 144.296 236.777 153.253 230.874 160.282C228.037 152.572 226.107 145.77 226.675 137.153C226.902 133.071 227.583 129.216 228.377 125.135C228.604 123.888 229.058 122.64 228.377 121.393C227.469 119.693 225.313 122.3 225.653 123.547C225.54 123.207 224.518 124.908 224.404 125.021C223.496 126.722 223.496 129.216 223.269 131.144C222.702 134.318 222.361 137.493 222.361 140.668C222.134 149.058 224.518 156.314 227.81 163.91C224.745 166.971 221.34 169.466 217.935 171.847C215.778 170.259 214.302 166.178 213.054 164.023C211.238 160.735 209.308 157.674 207.946 154.16C204.768 145.996 205.562 136.359 202.157 128.536C201.816 127.629 200.114 128.649 200.114 129.443C199.773 140.101 201.589 151.098 206.243 160.735C208.059 164.477 210.67 171.053 214.075 174.794C213.167 175.475 212.259 175.928 211.238 176.382C210.216 176.835 209.081 177.289 207.946 177.289C205.222 177.515 203.746 175.021 202.157 173.207C200.227 171.053 198.525 168.899 196.822 166.631C192.963 161.189 189.444 154.84 187.515 148.377C185.812 142.935 186.266 136.699 183.655 131.597C182.407 129.103 179.342 131.711 180.023 133.865C181.839 139.534 180.818 145.77 182.634 151.552C185.017 159.262 189.104 166.404 193.757 172.867C200.908 182.731 212.032 192.141 223.042 197.47C238.933 205.293 259.251 209.715 278.207 207.901C257.889 211.982 235.869 209.488 216.913 201.892C194.779 192.935 172.645 172.98 166.856 149.058C166.629 148.151 165.04 148.604 164.927 149.398C163.905 161.189 172.872 173.661 180.591 181.71C189.444 190.894 198.865 199.624 210.784 204.726C223.723 210.395 236.663 214.137 250.965 214.477C256.527 214.59 262.43 214.59 268.218 214.137C260.954 216.404 253.235 218.105 246.198 218.218C236.436 218.332 226.788 216.631 217.367 214.477C202.043 210.962 189.217 204.613 177.526 193.955C172.759 189.534 168.899 184.432 165.154 179.103C161.635 174.114 156.413 168.332 155.165 162.209C154.824 160.849 152.554 162.323 152.668 163.343C153.008 168.332 155.392 173.094 158.003 177.289C159.478 179.67 161.067 181.937 162.77 184.091C164.245 186.246 165.608 188.4 165.721 191.121C165.835 193.275 165.04 195.089 164.7 197.243C164.359 199.171 164.018 201.098 163.678 203.026C162.997 206.994 162.77 210.962 162.77 215.044C162.656 227.969 168.786 239.193 175.823 249.624C176.504 250.758 178.434 248.944 178.093 248.037C174.234 236.019 166.856 226.495 167.537 213.23C167.878 206.654 169.807 200.531 171.283 194.295C171.396 194.409 171.51 194.636 171.623 194.749C173.78 197.016 176.164 199.284 178.547 201.325C180.477 203.026 182.634 204.84 182.407 207.674C182.18 209.601 181.272 211.416 180.818 213.23C180.25 215.27 179.91 217.425 179.683 219.465C179.228 223.093 179.115 226.835 178.774 230.463C177.866 242.368 181.045 257.56 189.671 266.404C190.012 266.857 190.693 266.744 191.26 266.404C192.509 269.125 194.098 271.619 196.141 273.774C196.936 274.567 198.298 273.66 197.844 272.64C194.438 263.683 193.076 254.386 193.644 245.316C201.93 249.057 213.621 248.377 221.453 245.996C227.583 244.068 233.258 241.687 238.479 238.059C244.495 233.864 249.263 229.556 253.122 223.66C263.111 222.867 271.51 219.692 280.25 214.477C280.931 214.023 281.272 213.003 281.272 212.096C283.428 211.416 285.585 210.622 287.628 209.715C288.65 209.261 289.104 207.334 288.536 206.427C296.028 204.613 303.179 201.665 309.422 197.243C310.33 196.223 310.784 193.275 308.627 194.069ZM198.184 225.701C198.638 224.681 199.092 223.66 199.66 222.64C200.681 220.599 201.93 218.558 203.179 216.631C203.292 216.518 203.292 216.404 203.406 216.291C205.562 217.084 207.719 217.765 209.876 218.445C214.416 219.692 219.07 220.826 223.95 221.62C223.61 221.62 222.134 222.98 221.794 223.207C220.999 223.774 220.318 224.227 219.524 224.794C218.048 225.701 216.459 226.608 214.756 227.288C211.578 228.649 208.173 229.556 204.768 229.556C203.065 229.556 201.362 229.103 199.773 228.649C198.525 228.082 197.503 227.175 198.184 225.701ZM188.196 242.028C187.742 246.676 187.628 251.551 188.196 256.313C185.131 247.923 182.974 239.42 183.542 230.35C183.996 222.867 185.358 215.384 187.401 208.128C187.401 208.468 192.055 210.849 192.509 211.189C193.757 211.869 196.936 212.776 197.503 214.25C197.617 214.59 197.617 214.817 197.503 215.157C197.276 215.837 196.936 216.404 196.595 216.971C191.487 224.681 189.104 233.071 188.196 242.028ZM237.571 232.39C233.031 235.792 228.15 238.173 222.702 239.987C214.529 242.708 202.384 243.955 193.871 239.987C194.211 237.493 194.779 235.112 195.46 232.617C199.66 234.658 205.903 234.431 209.649 233.751C216.459 232.504 225.653 228.649 229.399 222.527C235.301 223.32 241.885 223.774 247.787 223.547C244.949 226.722 241.204 229.669 237.571 232.39Z" fill="black"/>
</g>
<g opacity="0.15">
<path d="M164.473 207.901C159.478 193.728 152.214 194.749 152.214 194.749C152.214 194.749 155.165 193.048 163.451 194.069C163.451 194.069 161.181 187.833 152.895 184.205C151.646 190.667 151.533 197.697 152.782 204.953C154.257 213.683 157.549 221.733 162.203 228.649C164.359 224 167.31 215.837 164.473 207.901Z" fill="black"/>
<path d="M181.953 247.469C183.542 243.955 185.812 240.327 189.558 236.812C199.887 227.401 203.633 224.68 203.519 218.218C203.406 209.714 195.233 210.395 192.85 211.755C192.85 211.755 190.58 208.241 184.564 209.941C179.569 211.302 177.413 215.724 177.413 215.724C177.413 215.724 173.326 215.27 169.127 219.805C167.197 221.959 164.359 225.928 162.43 228.762C167.424 236.472 174.121 242.821 181.953 247.469Z" fill="black"/>
</g>
<path d="M268.105 159.375C267.878 154.386 264.813 147.583 260.954 142.028C254.37 132.731 244.836 126.948 235.301 123.887L210.67 139.193C236.89 138.286 245.971 152.118 248.468 159.828C250.171 165.157 251.533 169.238 254.711 169.238C257.776 169.238 258.116 166.631 258.116 166.631C260.273 168.672 263.451 167.424 263.564 164.817C264.7 165.384 265.948 165.157 266.856 164.25C267.991 163.003 268.105 161.189 268.105 159.375Z" fill="#AD856D"/>
<path opacity="0.15" d="M235.188 123.887L210.557 139.193C213.962 139.08 217.027 139.193 219.864 139.533C226.448 136.019 233.258 131.143 238.707 125.134C237.571 124.681 236.436 124.227 235.188 123.887Z" fill="black"/>
<path opacity="0.15" d="M266.743 164.25C265.721 164.59 264.813 164.136 264.246 162.776C263.451 160.735 263.111 159.828 262.657 159.375C262.657 159.375 263.565 162.549 263.338 164.817C264.7 165.384 265.835 165.157 266.743 164.25Z" fill="black"/>
<path opacity="0.15" d="M261.635 167.424C260.386 167.424 259.365 166.517 258.911 164.93C258.23 162.776 257.889 162.209 257.435 161.755C257.435 161.755 258.23 164.363 258.003 166.631C259.138 167.651 260.5 167.878 261.635 167.424Z" fill="black"/>
<path d="M81.2715 197.13C83.7687 216.744 90.8061 228.649 104.881 239.306C118.956 249.964 138.366 255.746 146.992 258.921C155.619 262.095 162.089 266.29 167.991 260.848C173.78 255.406 172.645 244.182 183.088 234.771C193.417 225.361 197.163 222.64 197.049 216.177C196.936 207.674 188.763 208.354 186.38 209.715C186.38 209.715 184.109 206.2 178.093 207.901C173.099 209.261 170.943 213.683 170.943 213.683C170.943 213.683 166.856 213.229 162.656 217.765C159.365 221.279 153.576 230.236 153.576 230.236C153.576 230.236 162.202 217.765 158.003 205.86C153.008 191.688 145.744 192.708 145.744 192.708C145.744 192.708 148.695 191.007 156.981 192.028C156.981 192.028 153.122 181.824 137.912 179.783C122.815 177.742 113.508 188.059 113.508 188.059L81.2715 197.13Z" fill="#AD856D"/>
<path opacity="0.15" d="M173.326 210.508C171.624 212.096 170.829 213.683 170.829 213.683C174.121 213.683 177.98 213.91 180.023 219.805C180.137 219.692 182.634 213.116 173.326 210.508Z" fill="black"/>
<path opacity="0.15" d="M188.082 216.404C188.082 216.404 191.033 214.476 188.99 208.921C187.855 209.034 186.947 209.374 186.266 209.715C188.196 211.415 188.65 214.703 188.082 216.404Z" fill="black"/>
<path d="M179.115 227.855C171.851 230.009 165.948 235.111 162.997 243.388C160.046 251.664 161.521 256.993 164.813 257.673C168.105 258.354 169.694 257.787 172.305 253.252C174.348 247.696 176.277 240.893 182.974 234.658C185.017 232.844 186.72 231.256 188.196 229.896C187.969 227.628 184.677 226.154 179.115 227.855Z" fill="#F28F8F"/>
<path d="M176.391 220.825C174.121 220.032 172.078 225.361 174.688 226.268C176.845 226.948 179.456 221.846 176.391 220.825Z" fill="#F28F8F"/>
<path d="M185.585 217.991C183.315 217.197 181.272 222.526 183.883 223.433C186.039 224.227 188.536 219.125 185.585 217.991Z" fill="#F28F8F"/>
<path d="M192.622 217.424C190.352 216.63 188.309 221.959 190.92 222.866C193.19 223.66 195.687 218.558 192.622 217.424Z" fill="#F28F8F"/>
<path opacity="0.05" d="M161.408 260.848C147.9 257.9 149.716 250.757 143.701 246.336C137.685 242.027 124.291 243.615 102.724 226.041C81.1579 208.467 80.2498 170.259 93.9842 153.592C85.3576 164.25 79.6823 177.969 81.3849 197.016C81.6119 200.191 82.1794 203.139 82.974 205.973C86.3792 220.485 93.1897 230.236 104.994 239.193C119.069 249.85 138.479 255.633 147.106 258.807C155.732 261.982 162.202 266.177 168.105 260.735C168.559 260.281 169.013 259.828 169.353 259.261C166.97 260.848 164.359 261.415 161.408 260.848Z" fill="black"/>
<path opacity="0.15" d="M212.259 166.518C205.222 156.88 199.66 152.345 191.147 147.583V142.028C189.898 142.481 188.536 142.935 187.401 143.502C175.256 148.49 165.381 156.88 159.138 167.538C185.131 165.61 196.709 178.762 199.66 186.359C201.703 191.687 203.406 195.769 206.584 195.656C209.649 195.429 209.876 192.708 209.876 192.708C212.146 194.635 215.437 193.275 215.437 190.554C216.686 191.007 217.935 190.78 218.729 189.76C219.864 188.4 219.978 186.585 219.751 184.771C219.183 179.669 216.346 172.186 212.259 166.518Z" fill="black"/>
<path d="M220.659 181.03C220.205 175.928 217.367 168.445 213.281 162.776C206.243 153.139 200.682 148.604 192.168 143.842V137.153C192.168 137.153 161.408 143.389 160.84 163.797C187.628 161.302 197.73 174.908 200.568 182.617C202.611 187.946 204.314 192.028 207.492 191.914C210.557 191.688 210.784 188.967 210.784 188.967C213.054 190.894 216.346 189.534 216.346 186.812C217.594 187.266 218.843 187.039 219.637 186.019C220.886 184.658 220.886 182.844 220.659 181.03Z" fill="#AD856D"/>
<path opacity="0.15" d="M219.637 186.019C219.751 186.019 219.751 186.019 219.637 186.019C218.616 186.359 217.708 186.019 217.027 184.658C216.005 182.617 215.778 181.71 215.21 181.257C215.21 181.257 216.346 184.431 216.232 186.699C217.594 187.266 218.843 187.039 219.637 186.019Z" fill="black"/>
<path opacity="0.15" d="M214.53 189.647C213.281 189.647 212.146 188.853 211.692 187.266C210.897 185.112 210.443 184.545 209.989 184.091C209.989 184.091 210.897 186.699 210.784 189.08C212.032 189.987 213.508 190.1 214.53 189.647Z" fill="black"/>
<path opacity="0.15" d="M168.899 148.151C179.002 150.418 189.558 149.738 198.525 147.697C196.595 146.336 194.552 145.089 192.282 143.842V137.153C192.168 137.153 178.094 139.987 168.899 148.151Z" fill="black"/>
<path d="M198.866 70.0326C201.93 60.2821 215.551 47.8105 226.902 51.4386C233.372 53.4794 230.761 77.1755 230.761 77.1755C230.761 77.1755 209.876 78.7628 198.866 70.0326Z" fill="#AD856D"/>
<path opacity="0.15" d="M198.866 70.0326C201.93 60.2821 215.551 47.8105 226.902 51.4386C233.372 53.4794 230.761 77.1755 230.761 77.1755C230.761 77.1755 209.876 78.7628 198.866 70.0326Z" fill="black"/>
<path d="M208.514 74.7944C219.07 77.9689 230.761 77.0619 230.761 77.0619C230.761 77.0619 233.372 53.3659 226.902 51.3251C222.702 50.7582 212.6 57.1074 208.514 74.7944Z" fill="#FFA8A7"/>
<path d="M222.021 66.0642C221 63.4565 222.929 60.0552 222.929 60.0552C219.07 60.0552 214.076 64.0234 213.622 70.3726C213.622 70.3726 221.454 79.783 229.513 74.7943C229.853 73.207 230.534 71.9599 231.215 71.0529C231.329 69.4656 231.329 67.5381 231.329 65.7241C227.129 64.8171 222.021 66.0642 222.021 66.0642Z" fill="#F28F8F"/>
<path d="M172.191 79.3294C163.678 73.6605 145.29 72.4134 138.706 82.2773C134.961 87.8328 151.76 104.726 151.76 104.726C151.76 104.726 169.013 93.0482 172.191 79.3294Z" fill="#AD856D"/>
<path opacity="0.15" d="M172.191 79.3294C163.678 73.6605 145.29 72.4134 138.706 82.2773C134.961 87.8328 151.76 104.726 151.76 104.726C151.76 104.726 169.013 93.0482 172.191 79.3294Z" fill="black"/>
<path d="M167.651 89.1932C161.408 98.2635 151.76 104.839 151.76 104.839C151.76 104.839 134.847 87.9461 138.706 82.3905C141.544 79.216 153.349 77.9688 167.651 89.1932Z" fill="#FFA8A7"/>
<path d="M147.673 86.3587C147.673 86.3587 151.306 87.8326 152.1 90.5537C152.1 90.5537 146.879 92.8212 144.268 96.4493C145.29 97.6965 146.198 98.8303 147.106 99.9641C148.468 100.191 150.057 100.758 151.646 102.005C161.067 100.871 160.727 89.3065 160.727 89.3065C157.548 84.4312 150.625 83.8644 147.673 86.3587Z" fill="#F28F8F"/>
<path d="M208.173 140.1C197.277 143.955 180.931 146.563 166.516 142.028C149.376 136.699 148.355 113.116 152.555 102.232C156.754 91.3476 165.381 80.3499 185.018 73.4339C204.655 66.5178 218.389 69.8057 228.378 75.588C238.48 81.4837 252.555 100.418 242.453 115.384C234.053 127.855 219.183 136.245 208.173 140.1Z" fill="#AD856D"/>
<path d="M208.173 137.606C229.967 129.896 228.832 117.198 223.27 112.096C217.708 106.994 208.627 105.86 198.185 109.488C187.742 113.116 181.386 119.805 180.25 127.175C179.229 134.658 186.38 145.315 208.173 137.606Z" fill="#F0F0F0"/>
<path d="M202.157 128.536C202.157 128.536 203.065 132.164 205.789 131.257C208.627 130.35 206.925 126.835 206.925 126.835L203.519 124.341L202.157 128.536Z" fill="#F28F8F"/>
<path d="M202.044 120.372L196.936 119.805C196.595 119.805 196.255 119.465 196.368 119.012C196.368 118.672 196.709 118.331 197.163 118.445L201.59 118.898L204.882 115.724C205.109 115.497 205.563 115.497 205.903 115.724C206.13 115.951 206.13 116.404 205.903 116.744L202.044 120.372Z" fill="#455A64"/>
<path d="M198.298 131.03C197.39 131.03 196.596 130.803 195.801 130.463C194.439 129.783 193.304 128.649 192.85 127.175C192.736 126.835 192.963 126.381 193.304 126.268C193.644 126.155 194.098 126.381 194.212 126.722C194.552 127.855 195.347 128.762 196.482 129.216C197.504 129.669 198.752 129.783 199.887 129.443C201.022 129.103 201.93 128.309 202.384 127.175C202.839 126.155 202.952 124.908 202.612 123.774L201.249 119.919C201.136 119.579 201.363 119.125 201.703 119.012C202.044 118.899 202.498 119.125 202.612 119.465L203.974 123.32C204.541 124.794 204.428 126.382 203.747 127.742C203.066 129.103 201.93 130.236 200.455 130.69C199.66 130.917 198.979 131.03 198.298 131.03Z" fill="#455A64"/>
<path d="M207.946 127.629C207.038 127.629 206.244 127.402 205.449 127.062C204.087 126.382 202.952 125.248 202.498 123.774L201.136 119.919C201.022 119.579 201.249 119.125 201.59 119.012C201.931 118.899 202.385 119.125 202.498 119.465L203.86 123.32C204.201 124.454 204.995 125.361 206.13 125.815C207.152 126.268 208.4 126.382 209.536 126.041C211.806 125.248 213.054 122.753 212.26 120.486C212.146 120.146 212.373 119.692 212.714 119.579C213.054 119.465 213.508 119.692 213.622 120.032C214.643 123.094 213.054 126.381 210.103 127.402C209.195 127.515 208.627 127.629 207.946 127.629Z" fill="#455A64"/>
<path d="M220.096 104.651C222.756 103.714 224.153 100.801 223.216 98.1431C222.279 95.4854 219.362 94.0899 216.701 95.0263C214.04 95.9626 212.643 98.8762 213.581 101.534C214.518 104.192 217.435 105.587 220.096 104.651Z" fill="#455A64"/>
<path d="M178.095 119.41C180.756 118.474 182.153 115.56 181.216 112.902C180.278 110.245 177.361 108.849 174.701 109.786C172.04 110.722 170.643 113.635 171.58 116.293C172.518 118.951 175.434 120.346 178.095 119.41Z" fill="#455A64"/>
<path d="M156.868 117.198C156.641 117.198 156.3 117.084 156.073 116.858C152.214 112.889 145.631 108.808 136.55 111.982C135.982 112.209 135.415 111.869 135.188 111.302C134.961 110.735 135.301 110.168 135.869 109.942C146.085 106.427 153.349 110.849 157.662 115.27C158.116 115.724 158.116 116.404 157.662 116.744C157.322 117.084 157.095 117.198 156.868 117.198Z" fill="#455A64"/>
<path d="M154.484 119.806C154.257 119.806 154.144 119.806 153.917 119.692C150.398 117.538 144.041 117.538 140.636 119.012C140.069 119.239 139.501 119.012 139.274 118.445C139.047 117.878 139.274 117.311 139.842 117.084C143.701 115.384 150.852 115.384 155.052 117.991C155.506 118.332 155.733 118.898 155.392 119.465C155.165 119.579 154.825 119.806 154.484 119.806Z" fill="#455A64"/>
<path d="M138.139 128.649C137.798 128.649 137.571 128.536 137.344 128.309C137.004 127.855 137.004 127.175 137.458 126.835C143.701 121.506 151.873 120.599 156.754 121.846C157.322 121.96 157.662 122.527 157.549 123.094C157.435 123.66 156.754 124.001 156.3 123.887C151.873 122.753 144.609 123.66 138.933 128.422C138.593 128.649 138.366 128.649 138.139 128.649Z" fill="#455A64"/>
<path d="M233.826 90.1004C233.145 89.987 232.691 89.5335 232.804 88.9666C233.372 82.8442 236.21 74.7943 246.425 71.1662C246.993 70.9395 247.56 71.2796 247.787 71.8465C248.015 72.4134 247.674 72.9803 247.106 73.2071C238.026 76.495 235.415 83.7512 234.848 89.1934C234.848 89.6469 234.394 90.1004 233.826 90.1004Z" fill="#455A64"/>
<path d="M237.345 90.6672C237.231 90.6672 237.118 90.6672 237.004 90.5538C236.437 90.3271 236.21 89.7602 236.323 89.1933C237.912 84.5448 243.588 80.123 247.561 78.9893C248.128 78.8759 248.696 79.216 248.809 79.6695C248.923 80.2364 248.582 80.8033 248.128 80.9167C244.609 81.9371 239.615 85.9053 238.253 89.7602C238.139 90.3271 237.799 90.6672 237.345 90.6672Z" fill="#455A64"/>
<path d="M238.367 95.0888C238.14 95.0888 237.913 94.9755 237.799 94.8621C237.345 94.5219 237.231 93.8417 237.572 93.3882C240.523 89.3065 247.447 84.9982 255.733 85.1116C256.301 85.1116 256.755 85.5651 256.755 86.2453C256.755 86.8122 256.301 87.2657 255.733 87.2657C248.242 87.1524 241.999 91.0072 239.388 94.6353C239.048 94.9755 238.707 95.0888 238.367 95.0888Z" fill="#455A64"/>
<path d="M215.551 70.486C216.459 66.291 220.432 62.3228 224.178 62.3228C224.178 62.3228 222.248 65.7241 223.27 68.3318C223.27 68.3318 233.031 65.7241 236.664 70.2592C236.664 70.2592 232.237 71.0529 230.761 77.0619C222.702 82.1639 215.551 70.486 215.551 70.486Z" fill="#AD856D"/>
<path d="M159.479 90.2139C156.187 87.4928 150.625 86.8125 147.56 89.3068C147.56 89.3068 151.193 90.7807 151.987 93.5018C151.987 93.5018 142.68 97.5834 142.793 103.366C142.793 103.366 146.766 101.212 151.647 104.953C161.181 103.706 159.479 90.2139 159.479 90.2139Z" fill="#AD856D"/>
<path d="M193.985 70.8262C192.622 71.1664 192.509 68.672 193.19 65.6108C193.758 62.7764 196.028 57.2209 192.055 57.3342C188.196 57.4476 183.882 60.9623 182.18 67.6516C182.18 67.6516 180.364 65.3841 179.796 62.8898C179.229 60.3954 176.05 60.1687 174.575 65.1573C173.553 69.0122 175.369 72.867 176.391 74.4543C176.958 75.3613 176.731 76.8353 174.802 77.8557C174.802 77.8557 182.974 80.6901 188.536 77.8557C193.985 75.0212 193.985 70.8262 193.985 70.8262Z" fill="#AD856D"/>
<path d="M184.223 92.3682C185.585 92.2548 186.607 91.0076 186.493 89.6471C186.039 84.6584 183.883 79.8966 180.25 75.248C178.661 75.9283 177.072 76.6086 175.597 77.4022C179.115 81.5972 181.159 85.7922 181.613 90.1006C181.726 91.3478 182.861 92.3682 184.11 92.3682H184.223Z" fill="#455A64"/>
<path d="M199.206 83.978C199.433 85.1118 200.455 86.0188 201.59 86.0188C201.703 86.0188 201.93 86.0188 202.044 86.0188C203.406 85.7921 204.314 84.4316 203.973 83.071C203.065 78.5359 200.795 74.2275 197.163 70.2593C195.347 70.5994 193.417 70.9396 191.374 71.5064C195.801 75.3613 198.298 79.5563 199.206 83.978Z" fill="#455A64"/>
<path d="M183.542 74.001C186.153 76.8354 190.239 82.391 191.261 89.0803C191.488 90.3274 192.509 91.2344 193.758 91.2344C193.871 91.2344 193.985 91.2344 194.098 91.2344C195.46 91.0077 196.368 89.7605 196.141 88.4C195.12 81.5973 191.488 75.9284 188.536 72.3003C187.401 72.6404 186.266 72.9806 185.018 73.4341C184.564 73.6608 183.996 73.7742 183.542 74.001Z" fill="#455A64"/>
<path d="M94.0982 233.751C93.9847 233.751 93.9847 233.751 93.8711 233.751C92.8496 233.638 92.055 232.73 92.1685 231.71C92.9631 223.887 100.568 210.395 118.729 204.953C136.323 199.737 154.711 205.633 162.316 214.363C162.997 215.157 162.884 216.291 162.089 216.971C161.295 217.651 160.16 217.538 159.479 216.744C153.803 210.282 137.345 203.139 119.751 208.468C103.406 213.343 96.4818 225.248 95.8008 232.05C95.8008 232.957 95.0062 233.751 94.0982 233.751Z" fill="#455A64"/>
<path d="M112.259 247.923C111.237 247.923 110.443 247.13 110.443 246.109C110.443 242.368 113.281 229.329 122.702 221.279C137.344 208.695 154.257 213.57 159.592 216.404C160.5 216.858 160.84 217.992 160.273 218.899C159.819 219.806 158.684 220.146 157.776 219.579C153.122 216.971 138.139 212.776 125.085 224.001C116.686 231.143 114.075 242.821 114.075 245.996C114.075 247.016 113.281 247.81 112.259 247.923Z" fill="#455A64"/>
<path d="M88.4227 60.6224C82.9744 73.5475 87.9687 100.985 99.206 117.878C111.351 136.132 135.982 159.148 163.565 169.352C164.473 169.692 165.04 170.826 164.7 171.733C164.473 172.527 163.678 172.98 162.997 172.98C162.77 172.98 162.543 172.98 162.316 172.867C133.939 162.323 108.627 138.74 96.1413 120.033C83.5419 101.098 78.5476 70.5997 86.0391 57.2211C86.7201 56.0873 87.2877 55.1803 87.8552 54.5C88.3092 56.4274 88.4227 58.4682 88.4227 60.6224Z" fill="#455A64"/>
</svg>
