<svg width="18" height="12" viewBox="0 0 18 12" fill="none" xmlns="http://www.w3.org/2000/svg">
<path fill-rule="evenodd" clip-rule="evenodd" d="M2.44687 11.2926C2.15267 11.2056 1.88424 11.0507 1.66422 10.8411C1.4442 10.6316 1.27905 10.3734 1.18271 10.0884C0.632191 8.61553 0.469074 2.4652 1.52933 1.25105C1.88221 0.856087 2.38042 0.612914 2.91583 0.574319C5.76018 0.27576 14.5481 0.315568 15.5574 0.67384C15.8413 0.763742 16.1006 0.915192 16.316 1.11684C16.5314 1.31849 16.6973 1.56511 16.8012 1.83822C17.4027 3.36088 17.423 8.89418 16.7196 10.3571C16.533 10.7379 16.2206 11.0464 15.8327 11.2329C14.7724 11.7504 3.85375 11.7405 2.44687 11.2926V11.2926ZM6.96317 8.40654L12.0606 5.81902L6.96317 3.2116V8.40654Z" fill="white"/>
</svg>
